<?xml version="1.0" standalone="no"?>
<!DOCTYPE svg PUBLIC "-//W3C//DTD SVG 20010904//EN"
 "http://www.w3.org/TR/2001/REC-SVG-20010904/DTD/svg10.dtd">
<svg version="1.0" xmlns="http://www.w3.org/2000/svg"
 width="1448.000000pt" height="1315.000000pt" viewBox="0 0 1448.000000 1315.000000"
 preserveAspectRatio="xMidYMid meet">
<metadata>
Created by potrace 1.11, written by Peter Selinger 2001-2013
</metadata>
<g transform="translate(0.000000,1315.000000) scale(0.100000,-0.100000)"
fill="#000000" stroke="none">
<path d="M0 6575 l0 -6575 7240 0 7240 0 0 6575 0 6575 -7240 0 -7240 0 0
-6575z m8040 6154 c1822 -118 3522 -1043 4632 -2520 591 -787 986 -1686 1163
-2649 74 -405 100 -702 100 -1155 0 -199 -6 -413 -13 -495 -76 -869 -291
-1637 -667 -2375 -955 -1875 -2772 -3156 -4850 -3420 -453 -57 -987 -65 -1435
-20 -1834 183 -3474 1136 -4552 2644 -998 1397 -1380 3181 -1047 4891 433
2221 2036 4052 4188 4781 795 270 1612 374 2481 318z"/>
<path d="M6550 8886 l-2285 -1072 -3 -189 c-1 -104 0 -195 2 -202 3 -8 77 20
225 87 l221 98 0 -1504 0 -1504 -225 0 -225 0 2 -548 3 -547 633 -3 632 -2 0
745 0 745 455 0 455 0 0 -745 0 -745 2245 0 2245 0 0 1005 0 1005 -335 0 -335
0 0 885 0 885 150 0 150 0 0 155 c0 152 0 155 -22 160 -37 9 -1681 365 -1685
365 -1 0 -3 450 -3 1000 0 550 -3 1000 -7 999 -5 0 -1036 -483 -2293 -1073z"/>
</g>
</svg>
