<?xml version="1.0" standalone="no"?>
<!DOCTYPE svg PUBLIC "-//W3C//DTD SVG 20010904//EN"
 "http://www.w3.org/TR/2001/REC-SVG-20010904/DTD/svg10.dtd">
<svg version="1.0" xmlns="http://www.w3.org/2000/svg"
 width="1448.000000pt" height="1315.000000pt" viewBox="0 0 1448.000000 1315.000000"
 preserveAspectRatio="xMidYMid meet">
<metadata>
Created by potrace 1.11, written by Peter Selinger 2001-2013
</metadata>
<g transform="translate(0.000000,1315.000000) scale(0.100000,-0.100000)"
fill="#000000" stroke="none">
<path d="M7245 12734 c-22 -2 -103 -8 -180 -14 -590 -46 -1237 -198 -1813
-426 -1072 -425 -2022 -1150 -2722 -2079 -691 -917 -1115 -1992 -1239 -3145
-42 -388 -42 -942 0 -1330 190 -1764 1087 -3342 2507 -4409 854 -643 1880
-1063 2942 -1205 332 -44 444 -51 865 -51 418 1 569 10 890 56 582 84 1179
257 1715 499 169 76 455 225 615 320 2223 1325 3416 3825 3044 6380 -199 1367
-853 2646 -1848 3612 -1047 1017 -2358 1624 -3831 1774 -145 15 -840 28 -945
18z m1605 -3774 c0 -550 2 -1000 3 -1000 4 0 1648 -356 1685 -365 22 -5 22 -8
22 -160 l0 -155 -150 0 -150 0 0 -885 0 -885 335 0 335 0 0 -1005 0 -1005
-2245 0 -2245 0 0 745 0 745 -455 0 -455 0 0 -745 0 -745 -632 2 -633 3 -3
547 -2 548 225 0 225 0 0 1504 0 1504 -221 -98 c-148 -67 -222 -95 -225 -87
-2 7 -3 98 -2 202 l3 189 2285 1072 c1257 590 2288 1073 2293 1073 4 1 7 -449
7 -999z"/>
</g>
</svg>
