<?xml version="1.0" standalone="no"?>
<!DOCTYPE svg PUBLIC "-//W3C//DTD SVG 20010904//EN"
 "http://www.w3.org/TR/2001/REC-SVG-20010904/DTD/svg10.dtd">
<svg version="1.0" xmlns="http://www.w3.org/2000/svg"
 width="1448.000000pt" height="1315.000000pt" viewBox="0 0 1448.000000 1315.000000"
 preserveAspectRatio="xMidYMid meet">
<metadata>
Created by potrace 1.11, written by Peter Selinger 2001-2013
</metadata>
<g transform="translate(0.000000,1315.000000) scale(0.100000,-0.100000)"
fill="#000000" stroke="none">
<path d="M0 6575 l0 -6575 7240 0 7240 0 0 6575 0 6575 -7240 0 -7240 0 0
-6575z m8850 2386 c0 -791 3 -1000 13 -1004 7 -2 6 -3 -3 -3 -13 1 -15 120
-18 998 -2 944 -3 997 -20 992 -14 -5 -15 -4 -2 5 8 6 18 11 23 11 4 0 7 -450
7 -999z m-4133 -3614 c-1 -414 -2 -72 -2 758 0 831 1 1169 2 752 2 -417 2
-1097 0 -1510z m5540 606 c-1 -246 -2 -47 -2 442 0 490 1 691 2 448 2 -243 2
-643 0 -890z m673 -1448 l0 -1005 -2247 2 -2248 3 2243 2 2242 3 0 1000 c0
550 2 1000 5 1000 3 0 5 -452 5 -1005z m-6032 -998 l627 -2 -630 0 -630 0 0
550 0 550 2 -547 3 -548 628 -3z"/>
</g>
</svg>
