<?xml version="1.0" standalone="no"?>
<!DOCTYPE svg PUBLIC "-//W3C//DTD SVG 1.1//EN" "http://www.w3.org/Graphics/SVG/1.1/DTD/svg11.dtd" >
<svg xmlns="http://www.w3.org/2000/svg" xmlns:xlink="http://www.w3.org/1999/xlink" version="1.1">
<metadata></metadata>
<defs>
<font id="globersemibold_free" horiz-adv-x="1339" >
<font-face units-per-em="2048" ascent="1536" descent="-512" />
<missing-glyph horiz-adv-x="460" />
<glyph horiz-adv-x="0" />
<glyph unicode="&#xd;" horiz-adv-x="681" />
<glyph unicode=" "  horiz-adv-x="460" />
<glyph unicode="&#x09;" horiz-adv-x="460" />
<glyph unicode="&#xa0;" horiz-adv-x="460" />
<glyph unicode="!" horiz-adv-x="548" d="M164 1460q33 14 110 15q33 0 60.5 -4.5t38.5 -8.5l12 -2l-35 -1067q-27 -16 -74 -16q-23 0 -42 4t-27 8l-8 4zM170 14v193q31 14 104 14q31 0 57.5 -4t37.5 -8l10 -2v-193q-35 -14 -105 -14q-33 0 -59.5 3t-34.5 7z" />
<glyph unicode="&#x26;" horiz-adv-x="1314" d="M88 332q0 80 32 152.5t83 125t96 85t92 59.5q-76 166 -76 321.5t85 246.5t253 91q143 0 226.5 -68.5t83.5 -185.5q0 -141 -89.5 -238.5t-259.5 -199.5q113 -186 301 -342q57 78 105 217q100 12 158 -61q-49 -127 -144 -246q119 -76 236 -127q2 -47 -23.5 -94.5 t-66.5 -69.5q-129 51 -277 149q-168 -168 -418 -167q-166 0 -281.5 89t-115.5 263zM283 358q0 -96 63 -154.5t172 -58.5q141 0 268 93q-209 178 -331 393q-172 -115 -172 -273zM494 1087q0 -113 57 -243q111 66 168 134.5t57 166.5q0 61 -33.5 96t-99.5 35q-70 0 -109.5 -48 t-39.5 -141z" />
<glyph unicode="(" horiz-adv-x="600" d="M106 655.5q0 159.5 29 321.5t70 279.5t82 213t69 144.5l29 47q39 2 86 -23q23 -12 39 -26.5t22 -22.5l5 -10q-10 -14 -25.5 -42t-54.5 -121t-70 -193.5t-55.5 -255t-24.5 -312t23.5 -310t57.5 -259t67.5 -189.5t56.5 -124l25 -41q-16 -35 -64 -60q-20 -10 -42.5 -15 t-33.5 -5l-12 -2q-12 18 -30.5 51t-66.5 139.5t-85 217t-67 274.5t-30 323.5z" />
<glyph unicode=")" horiz-adv-x="602" d="M63 -268q10 14 25.5 41.5t55.5 121t71 193.5t55.5 255t24.5 312.5t-23.5 310t-57.5 259t-68.5 189.5t-59.5 124l-23 41q18 33 68 59q20 10 42 16.5t32 6.5h12q12 -18 30.5 -51t66.5 -139.5t85 -217t67 -274.5t30 -323.5t-29 -321.5t-70 -279.5t-82 -213t-69 -144.5 l-29 -47q-41 0 -88 22q-20 10 -36.5 25.5t-22.5 23.5z" />
<glyph unicode="," horiz-adv-x="481" d="M125 -205q66 72 76 205q-20 0 -38 4t-24 8l-6 2v193q37 14 107 14q31 0 57.5 -4t38.5 -8l10 -2v-129q0 -61 -15.5 -118.5t-37 -95.5t-43 -65.5t-37.5 -40.5l-14 -14z" />
<glyph unicode="-" horiz-adv-x="733" d="M141 594q0 20 3 39.5t8 28.5l2 8h426q12 -29 12 -76q0 -20 -3 -39.5t-7 -28.5l-2 -8h-426q-12 29 -13 76z" />
<glyph unicode="." horiz-adv-x="479" d="M133 14v193q33 14 107 14q31 0 57.5 -4t38.5 -8l10 -2v-193q-37 -14 -106 -14q-33 0 -59.5 3t-37.5 7z" />
<glyph unicode="/" horiz-adv-x="972" d="M43 -82l684 1604q37 14 100 14q31 0 56.5 -4t36.5 -8l10 -2l-684 -1604q-37 -14 -103 -14q-29 0 -54.5 3t-35.5 7z" />
<glyph unicode="0" horiz-adv-x="1265" d="M123 696q0 717 508 717q252 0 382 -172t130 -544.5t-130 -544.5t-382 -172t-380 172t-128 544zM340 696q0 -305 70.5 -423.5t220.5 -118.5q152 0 221.5 118.5t69.5 423.5q0 307 -69.5 425t-221.5 118q-150 0 -220.5 -119t-70.5 -424z" />
<glyph unicode="1" horiz-adv-x="847" d="M61 1104q248 66 392 274q31 14 100 15q31 0 55.5 -4.5t34.5 -8.5l10 -2v-1364q-31 -14 -102 -14q-29 0 -55.5 3t-36.5 7l-13 4v840q0 154 11 266q-133 -133 -346 -186q-70 66 -50 170z" />
<glyph unicode="2" horiz-adv-x="1089" d="M98 137q0 109 29 193t88 147.5t111.5 103.5t134.5 93q23 14 33 20q111 74 157.5 112t80.5 95t34 131q0 98 -66.5 154.5t-201.5 56.5q-66 0 -138.5 -13t-111.5 -26l-39 -12q-70 55 -57 147q160 74 378 74q201 0 324 -91t123 -284q0 -76 -19.5 -137t-45 -103t-86 -91.5 t-104.5 -78t-136 -83.5q-16 -10 -62.5 -38t-68 -41t-58.5 -43t-54 -54.5t-31.5 -61.5t-14.5 -78q0 -29 4 -45h639q20 -33 21 -92q0 -51 -21 -92h-829q-12 66 -13 137z" />
<glyph unicode="3" horiz-adv-x="1075" d="M96 51q-4 96 51 152q125 -47 291 -47q160 0 236 58t76 185q0 246 -289 246h-152q-33 86 0 164h152q246 0 246 215q0 217 -265 217q-70 0 -135 -11t-98 -22l-31 -12q-74 51 -63 145q133 72 346 72q215 0 333.5 -94t118.5 -268q0 -240 -182 -318q227 -81 227 -360 q0 -393 -505 -393q-100 0 -189.5 18t-128.5 35z" />
<glyph unicode="4" horiz-adv-x="1185" d="M61 432q0 25 4.5 45.5t8.5 28.5l4 8l637 864q35 14 104 15q31 0 55.5 -4.5t34.5 -8.5l9 -2v-864h182q14 -29 14 -82q0 -25 -4 -45t-8 -29l-2 -8h-182v-336q-35 -14 -95 -14q-29 0 -53.5 3t-36.5 7l-10 4v336h-645q-16 29 -17 82zM283 514h440v596z" />
<glyph unicode="5" horiz-adv-x="1069" d="M94 47q-6 94 51 152q113 -43 271 -43q334 0 334 245q0 139 -77 196.5t-261 57.5q-68 0 -234 -12v750h723q37 -94 0 -181h-522v-393q49 6 106 6q475 0 476 -424q0 -422 -525 -421q-106 0 -191 16t-118 33z" />
<glyph unicode="6" horiz-adv-x="1130" d="M119 526q0 818 774 867q35 -78 0 -164q-227 -25 -357 -125t-178 -301q133 49 254 49q190 0 307 -106.5t117 -329.5q0 -217 -121.5 -326.5t-337 -109.5t-337 134t-121.5 412zM328 518q0 -381 250 -381q115 0 181 70t66 209q0 274 -245 274q-104 0 -248 -59q-4 -35 -4 -113 z" />
<glyph unicode="7" horiz-adv-x="1015" d="M70 1303q0 27 4 49t8 32l4 9h848q16 -47 12 -115q-4 -131 -57 -250t-127 -217t-146.5 -205.5t-123 -260t-50.5 -335.5q-45 -10 -98 -10q-55 0 -100 10q0 193 45 351.5t111.5 265t136 196.5t128 189.5t76.5 197.5h-655q-16 35 -16 93z" />
<glyph unicode="8" horiz-adv-x="1189" d="M117 344q0 238 260 379q-219 125 -219 340q0 160 116.5 255t317.5 95q199 0 312.5 -88t113.5 -246q0 -209 -201 -346q121 -63 190.5 -149t69.5 -222q0 -182 -128 -282t-361 -100q-221 0 -346 96t-125 268zM313 354q0 -98 73 -155.5t210 -57.5q127 0 200.5 57.5 t73.5 153.5q0 35 -9 66t-33.5 57.5t-42 44t-63.5 40t-64.5 31.5t-78 34.5l-73.5 31.5q-193 -123 -193 -303zM358 1075q0 -41 17.5 -76.5t41 -59.5t69.5 -50.5t78 -40.5t91 -41q18 -8 29 -12q150 117 150 266q0 94 -63.5 146.5t-178.5 52.5q-111 0 -172.5 -49.5t-61.5 -135.5 z" />
<glyph unicode="9" horiz-adv-x="1130" d="M94 977q0 217 122 326.5t337 109.5t337 -134t122 -413q0 -817 -772 -866q-33 86 -2 164q225 25 356 124t178 302q-133 -49 -254 -49q-190 0 -307 106.5t-117 329.5zM305 977q0 -274 246 -275q111 0 248 58q4 74 4 114q0 381 -250 381q-115 0 -181.5 -69.5t-66.5 -208.5z " />
<glyph unicode="?" horiz-adv-x="892" d="M70 1341q121 72 327 72q188 0 301 -90t113 -266q0 -111 -38 -190t-92 -123t-107.5 -85t-91.5 -105.5t-38 -154.5q-23 -20 -77 -20q-23 0 -42.5 5t-29.5 9l-8 6q0 121 32.5 205t77.5 127t91.5 81t79 95.5t32.5 139.5q0 197 -233 196q-66 0 -124.5 -11t-82.5 -24l-27 -12 q-74 51 -63 145zM260 14v193q33 14 107 14q31 0 57.5 -4t38.5 -8l10 -2v-193q-37 -14 -106 -14q-33 0 -59.5 3t-37.5 7z" />
<glyph unicode="@" horiz-adv-x="1869" d="M111 571q0 377 237.5 599.5t608 222.5t581.5 -210t211 -562q0 -213 -96.5 -330t-268.5 -117q-199 0 -254 125q-72 -125 -262 -125q-322 0 -321 395q0 397 321 398q160 0 238 -88v79q27 16 86 17q27 0 48.5 -4t29.5 -8l8 -5v-507q0 -139 113 -140q88 0 141 78t53 232 q0 291 -167 465t-462 174q-305 0 -484 -184.5t-179 -504.5q0 -172 54 -304t147.5 -209.5t208 -116.5t247.5 -39q281 0 541 155q57 -31 61 -102q-279 -193 -628 -193q-160 0 -303.5 50.5t-259 146.5t-183 255t-67.5 357zM735 569q0 -150 50.5 -208t144.5 -58q78 0 125 47 t51 119v201q-4 72 -51 120t-125 48q-96 0 -145.5 -56.5t-49.5 -212.5z" />
<glyph unicode="A" d="M33 14l514 1446q51 14 123 15q35 0 65.5 -4.5t42.5 -8.5l15 -2l514 -1446q-37 -14 -113 -14q-31 0 -56.5 3t-35.5 7l-10 4l-127 361h-607l-129 -361q-35 -14 -100 -14q-29 0 -52.5 3t-33.5 7zM418 545h487l-186 518l-53 184h-7q-18 -82 -53 -184z" />
<glyph unicode="B" horiz-adv-x="1286" d="M182 0v1475h549q193 0 297.5 -112t104.5 -294q0 -207 -164 -311q207 -106 207 -342q0 -188 -116 -302t-321 -114h-557zM391 162h309q260 0 261 254q0 129 -63.5 191.5t-199.5 62.5h-307v-508zM391 825h295q119 0 176.5 65.5t57.5 178.5q0 244 -236 244h-293v-488z" />
<glyph unicode="C" horiz-adv-x="1150" d="M119 737q0 373 150.5 565.5t445.5 192.5q100 0 188 -17.5t125 -35.5l37 -17v-9q0 -77 -61 -146q-119 47 -265 47q-195 0 -299 -130t-104 -452q0 -166 28.5 -281.5t85 -177t126 -88t163.5 -26.5q72 0 143.5 11t106.5 24l35 12q59 -57 63 -160q-131 -69 -365 -69h-7 q-293 0 -444.5 191t-151.5 566z" />
<glyph unicode="D" horiz-adv-x="1359" d="M182 0v1475h455q297 0 449.5 -172.5t152.5 -565.5t-152.5 -565t-449.5 -172h-455zM391 174h232q96 0 163.5 23.5t122 84t81 174t26.5 281.5q0 170 -26.5 283t-81 173t-122 83.5t-163.5 23.5h-232v-1126z" />
<glyph unicode="E" horiz-adv-x="1138" d="M182 0v1475h832q16 -49 16 -80q0 -47 -16 -90h-623v-476h520q16 -49 17 -81q0 -43 -17 -86h-520v-492h643q16 -53 17 -82q0 -43 -17 -88h-852z" />
<glyph unicode="F" horiz-adv-x="1089" d="M182 14v1461h815q17 -38 17 -87q0 -46 -17 -83h-606v-500h537q16 -33 16 -82t-16 -88h-537v-621q-35 -14 -106 -14q-31 0 -56.5 3t-35.5 7z" />
<glyph unicode="G" horiz-adv-x="1288" d="M119 737q0 371 160.5 564.5t468.5 193.5q109 0 204 -17.5t138 -35.5l40 -17q0 -96 -61 -153q-137 47 -299 47q-207 0 -320.5 -131t-113.5 -453q0 -166 31.5 -281.5t92 -178t135.5 -89t175 -26.5q113 0 186 16v473h-297q-16 31 -16 84q0 25 4 46.5t8 31.5l4 8h494v-770 q-150 -69 -398 -69h-7q-307 0 -468 192t-161 565z" />
<glyph unicode="H" horiz-adv-x="1396" d="M182 14v1446q35 14 103 15q31 0 57.5 -4.5t38.5 -8.5l10 -2v-614h615v614q37 14 104 15q31 0 56.5 -4.5t37.5 -8.5l10 -2v-1446q-35 -14 -102 -14q-35 0 -61.5 3t-34.5 7l-10 4v652h-615v-652q-37 -14 -104 -14q-33 0 -59.5 3t-34.5 7z" />
<glyph unicode="I" horiz-adv-x="573" d="M182 14v1446q35 14 103 15q33 0 59.5 -4.5t36.5 -8.5l10 -2v-1446q-37 -14 -104 -14q-33 0 -59.5 3t-34.5 7z" />
<glyph unicode="J" horiz-adv-x="907" d="M41 41v12q0 88 55 146q94 -37 199 -37q231 0 231 223v1075q29 14 105 15q31 0 57.5 -4.5t36.5 -8.5l10 -2v-1069q0 -203 -106.5 -307t-288.5 -104q-74 0 -148.5 15t-113.5 30z" />
<glyph unicode="K" horiz-adv-x="1263" d="M182 14v1446q37 14 107 15q31 0 56.5 -4.5t35.5 -8.5l10 -2v-610h150l422 610q61 14 104 15q41 0 113 -15l-465 -672l526 -774q-43 -14 -123 -14q-33 0 -63.5 3t-42.5 7l-15 4l-456 668h-150v-668q-31 -14 -104 -14q-29 0 -55.5 3t-38.5 7z" />
<glyph unicode="L" horiz-adv-x="1062" d="M182 0v1460q35 14 103 15q33 0 59.5 -4.5t36.5 -8.5l10 -2v-1280h613q16 -39 16 -90q0 -47 -16 -90h-822z" />
<glyph unicode="M" horiz-adv-x="1710" d="M182 14v1446q49 14 125 15q29 0 59.5 -4.5t47.5 -8.5l18 -2l270 -512q117 -231 142 -317h8q31 92 76 182q164 307 334 647q68 14 133 15q37 0 70.5 -4.5t50.5 -8.5l14 -2v-1446q-35 -14 -103 -14q-29 0 -55 3t-37 7l-12 4v656q0 455 12 547h-10q-23 -82 -182 -412 l-240 -451q-27 -10 -63 -10q-16 0 -30.5 2t-21.5 6l-6 2l-235 443q-160 319 -187 420h-8q20 -102 21 -517v-686q-33 -14 -99 -14q-25 0 -48 3t-33 7z" />
<glyph unicode="N" horiz-adv-x="1433" d="M182 14v1446q43 14 125 15q37 0 68 -4.5t43 -8.5l12 -2l510 -923q33 -59 64.5 -127t48.5 -107l14 -39h6q-14 152 -14 342v854q31 14 98 15q31 0 54.5 -4.5t31.5 -8.5l8 -2v-1446q-39 -14 -121 -14q-37 0 -67.5 3t-42.5 7l-14 4l-517 932q-33 59 -63.5 125t-44.5 103 l-12 36h-9q14 -137 15 -344v-852q-31 -14 -99 -14q-29 0 -52 3t-31 7z" />
<glyph unicode="O" horiz-adv-x="1392" d="M119 737q0 383 151.5 570.5t426 187.5t426 -186.5t151.5 -571.5q0 -758 -577.5 -758t-577.5 758zM338 737.5q0 -321.5 91 -452.5t267 -131t267.5 131t91.5 452.5t-91.5 452.5t-267.5 131t-267 -131t-91 -452.5z" />
<glyph unicode="P" horiz-adv-x="1241" d="M182 14v1461h535q201 0 320.5 -124t119.5 -327q0 -201 -119.5 -325t-320.5 -124h-326v-561q-35 -14 -102 -14q-33 0 -59.5 3t-36.5 7zM391 750h299q121 0 185.5 71.5t64.5 202.5t-64.5 203.5t-185.5 72.5h-299v-550z" />
<glyph unicode="Q" horiz-adv-x="1392" d="M119 737q0 383 151.5 570.5t426 187.5t426 -186.5t151.5 -571.5q0 -444 -201 -628q109 -94 275 -129q-6 -55 -38 -104.5t-77 -72.5q-180 59 -299 222q-102 -45 -238 -45h-2q-575 0 -575 757zM338 737.5q0 -321.5 91 -452.5t267 -131t267.5 131t91.5 452.5t-91.5 452.5 t-267.5 131t-267 -131t-91 -452.5z" />
<glyph unicode="R" horiz-adv-x="1282" d="M182 14v1461h525q201 0 320.5 -119t119.5 -314q0 -152 -77 -260t-212 -149l356 -619q-43 -14 -122 -14q-33 0 -63 3t-42 7l-14 4l-340 598h-242v-598q-35 -14 -102 -14q-33 0 -59.5 3t-36.5 7zM391 786h289q119 0 184.5 68t65.5 188q0 123 -65.5 190.5t-184.5 67.5h-289 v-514z" />
<glyph unicode="S" horiz-adv-x="1163" d="M113 66v12q0 80 49 153q193 -63 383 -63q311 0 311 233q0 98 -65.5 149.5t-192.5 92.5q-18 6 -79.5 25.5t-87 29t-79 32t-78 40.5t-62.5 51t-55.5 67t-30.5 82t-13 105q0 195 128 307.5t371 112.5q109 0 209.5 -14.5t145.5 -28.5l47 -14q0 -104 -58 -164q-139 45 -315 45 q-322 0 -322 -234q0 -27 5.5 -48t19.5 -40.5t27.5 -34t39 -28.5t43 -23.5t53.5 -23t55.5 -19.5t62.5 -19t61 -20q86 -29 142.5 -57.5t118 -76.5t92 -119.5t30.5 -167.5q0 -207 -132 -317.5t-382 -110.5q-121 0 -231.5 21.5t-159.5 43.5z" />
<glyph unicode="T" horiz-adv-x="1120" d="M53 1384q0 23 4 45.5t9 32.5l4 13h981q16 -37 16 -89q0 -25 -4 -47t-8 -32l-4 -13h-381v-1280q-37 -14 -105 -14q-33 0 -59.5 3t-34.5 7l-10 4v1280h-391q-16 35 -17 90z" />
<glyph unicode="U" horiz-adv-x="1376" d="M172 500v960q35 14 102 15q31 0 57.5 -4.5t37.5 -8.5l10 -2v-993q0 -147 82 -229t229.5 -82t228 81.5t80.5 229.5v993q33 14 101 15q31 0 56.5 -4.5t35.5 -8.5l12 -2v-960q0 -248 -140 -384t-378 -136q-236 0 -375 138t-139 382z" />
<glyph unicode="V" horiz-adv-x="1310" d="M41 1456q39 18 115 19q31 0 55.5 -4.5t34.5 -8.5l8 -4l338 -983q20 -59 36.5 -120.5t22.5 -92.5l6 -31h7q18 106 65 244l340 983q29 16 96 17q29 0 55.5 -4.5t39.5 -8.5l12 -4l-496 -1444q-49 -14 -121 -14q-33 0 -62.5 3t-43.5 7l-14 4z" />
<glyph unicode="W" horiz-adv-x="1978" d="M53 1460q35 14 105 15q33 0 58.5 -4.5t35.5 -8.5l10 -2l268 -962q16 -59 30.5 -127t21.5 -105l6 -39h8q16 135 49 271l246 962q33 14 108 15q35 0 63 -4.5t38 -8.5l10 -2l244 -962q16 -63 27.5 -131t15.5 -105l4 -35h6q18 123 57 271l269 962q37 14 94 15q27 0 51.5 -4.5 t34.5 -8.5l12 -2l-399 -1446q-47 -14 -119 -14q-31 0 -62.5 3t-46.5 7l-16 4l-235 938q-18 84 -30.5 160t-15.5 109l-2 32h-8q-6 -111 -49 -301l-235 -938q-68 -14 -134 -14q-57 0 -118 14z" />
<glyph unicode="X" horiz-adv-x="1282" d="M29 14l477 752l-428 694q41 14 121 15q31 0 60.5 -4.5t43.5 -8.5l12 -2l334 -534l340 534q53 14 111 15q63 0 110 -15l-438 -682l475 -760q-43 -18 -121 -18q-33 0 -61.5 4t-40.5 8l-14 4l-375 598l-379 -600q-47 -14 -104 -14q-80 0 -123 14z" />
<glyph unicode="Y" horiz-adv-x="1298" d="M39 1460q45 14 127 15q33 0 62.5 -4.5t41.5 -8.5l15 -2l374 -633l385 633q37 14 109 15q31 0 60.5 -4.5t43.5 -8.5l13 -2l-518 -844v-602q-35 -14 -103 -14q-33 0 -59.5 3t-36.5 7l-10 4v598z" />
<glyph unicode="Z" horiz-adv-x="1216" d="M74 94q0 51 16 90l760 1108h-705q-12 53 -12 97q0 41 12 86h945q14 -33 14 -89q0 -51 -14 -94l-771 -1108h797q12 -45 12 -88q0 -39 -12 -96h-1026q-16 45 -16 94z" />
<glyph unicode="`" horiz-adv-x="487" d="M61 1581q23 35 76 58.5t103 17.5l194 -289q-35 -49 -117 -63z" />
<glyph unicode="a" horiz-adv-x="1054" d="M82 322q0 321 391 321h2q127 0 234 -12v76q0 109 -48.5 164t-162.5 55q-63 0 -132 -12.5t-106 -24.5l-37 -15q-35 35 -47 62q-12 29 -12 86q154 76 358 76q215 0 303 -96.5t88 -301.5v-686q-23 -14 -79 -14q-23 0 -43.5 3t-28.5 7l-10 4l-31 131q-82 -165 -319 -165h-3 q-147 0 -232 87t-85 255zM293 322q0 -184 178 -185q115 0 176.5 82t61.5 201v72q-141 12 -207 12q-209 0 -209 -182z" />
<glyph unicode="b" horiz-adv-x="1138" d="M150 14v1508q33 14 100 14q31 0 57.5 -4t36.5 -8l10 -2v-557q90 133 295 133q186 0 285.5 -130t99.5 -429t-99 -429t-286 -130q-205 0 -295 133v-99q-35 -14 -104 -14q-31 0 -55.5 3t-34.5 7zM354 410q0 -111 59.5 -187t164.5 -76q129 0 187 85t58 306.5t-58 306.5 t-187 85q-104 0 -164 -75t-60 -183v-262z" />
<glyph unicode="c" horiz-adv-x="915" d="M102 538.5q0 274.5 114 417t337 142.5q88 0 156.5 -12.5t93.5 -24.5l24 -14q0 -92 -59 -148q-71 31 -180 31q-145 0 -210 -94.5t-65 -296.5q0 -201 68 -293t215 -92q49 0 97 9t73 17l22 8q55 -49 60 -147q-90 -61 -295 -61q-223 0 -337 142t-114 416.5z" />
<glyph unicode="d" horiz-adv-x="1138" d="M104 539q0 299 99.5 429t285.5 130q201 0 295 -133v557q35 14 105 14q31 0 55.5 -4t34.5 -8l10 -2v-1508q-35 -14 -86 -14q-23 0 -46 3t-34 7l-12 4l-14 111q-96 -145 -308 -145q-186 0 -285.5 130t-99.5 429zM315 538.5q0 -221.5 58.5 -306.5t187.5 -85q104 0 163.5 76 t59.5 187v264q-2 109 -61 182.5t-162 73.5q-129 0 -187.5 -85t-58.5 -306.5z" />
<glyph unicode="e" horiz-adv-x="1052" d="M102 545q0 281 121 417t334 136q193 0 299.5 -105.5t106.5 -306.5q0 -57 -6.5 -109.5t-10.5 -76.5l-6 -25h-627q12 -176 82 -248.5t203 -72.5q66 0 126 15t87 30l29 14q61 -55 65 -147q-12 -10 -37.5 -24.5t-114.5 -38t-188 -23.5q-463 0 -463 565zM313 621h439 q6 49 6 92q0 223 -201 223q-221 0 -244 -315z" />
<glyph unicode="f" horiz-adv-x="720" d="M63 1001q0 41 11 76h135v123q0 160 79 248t263 88q61 0 117.5 -10t81.5 -23l26 -10q-2 -84 -53 -143q-60 22 -150 22h-8q-84 0 -117.5 -39t-33.5 -123v-133h256q10 -37 10 -80q0 -37 -10 -73h-256v-910q-35 -14 -103 -14q-33 0 -58.5 3t-35.5 7l-8 4v910h-135 q-10 55 -11 77z" />
<glyph unicode="g" horiz-adv-x="1087" d="M59 -227q0 102 58.5 172.5t124.5 109.5q-45 45 -45 119q0 113 98 227q-186 86 -186 328q0 174 103 271.5t298 97.5q137 0 227 -47l287 47q14 -33 14 -81t-14 -81l-170 8q57 -84 57 -215q0 -174 -103 -271.5t-298 -97.5q-51 0 -90 7q-40 -52 -40 -105q0 -7 1 -14 q6 -43 55 -66.5t121 -30t154 -21.5t150.5 -39.5t114.5 -89t46 -163.5q0 -154 -141.5 -252t-384.5 -98q-221 0 -329 78t-108 207zM258 -186q0 -82 61.5 -131.5t182.5 -49.5q156 0 240.5 50.5t84.5 134.5q0 59 -51 92t-114.5 41t-159.5 20.5t-150 28.5q-94 -76 -94 -186z M303 729q0 -111 55.5 -167t151.5 -56t150.5 55t54.5 168t-54.5 169t-150.5 56t-151.5 -56t-55.5 -169z" />
<glyph unicode="h" horiz-adv-x="1124" d="M150 14v1508q31 14 102 14q29 0 54.5 -4t37.5 -8l10 -2v-553q113 129 310 129q152 0 234.5 -84.5t82.5 -225.5v-774q-35 -14 -102 -14q-31 0 -56.5 3t-36.5 7l-10 4v738q0 180 -190 180q-145 0 -232 -131v-787q-37 -14 -102 -14q-33 0 -58.5 3t-33.5 7z" />
<glyph unicode="i" horiz-adv-x="512" d="M150 1284v193q33 14 106 14q31 0 57.5 -4t38.5 -8l10 -2v-193q-37 -14 -106 -14q-33 0 -59.5 4t-36.5 8zM154 14v1049q31 14 102 14q31 0 56.5 -4t35.5 -8l10 -2v-1049q-35 -14 -102 -14q-33 0 -58.5 3t-33.5 7z" />
<glyph unicode="j" horiz-adv-x="512" d="M-82 -446q0 33 5 58.5t11 35.5l5 10q33 -8 75 -8q140 0 140 162v1251q31 14 102 14q31 0 56.5 -4t35.5 -8l10 -2v-1243q0 -162 -75.5 -247t-221.5 -85q-39 0 -72.5 4t-49.5 8l-15 6q-6 20 -6 48zM150 1286v193q33 14 106 14q31 0 57.5 -3t38.5 -7l10 -4v-193 q-37 -14 -106 -14q-33 0 -59.5 3t-36.5 7z" />
<glyph unicode="k" horiz-adv-x="1026" d="M150 14v1512q41 10 104 10l100 -10v-887h117l279 424q41 14 104 14q25 0 50.5 -3t37.5 -5l12 -4l-315 -490l362 -561q-45 -16 -114 -16q-31 0 -58.5 4t-40.5 8l-12 4l-307 471h-115v-471q-41 -14 -100 -14q-29 0 -55.5 3t-38.5 7z" />
<glyph unicode="l" horiz-adv-x="516" d="M156 14v1508q31 14 102 14q31 0 56.5 -4t35.5 -8l10 -2v-1508q-35 -14 -102 -14q-33 0 -58.5 3t-35.5 7z" />
<glyph unicode="m" horiz-adv-x="1697" d="M150 14v1049q31 14 102 14q29 0 54.5 -4t35.5 -8l10 -2v-92q111 127 295 127q188 0 266 -150q125 150 336 150q143 0 224 -84t81 -226v-774q-35 -14 -102 -14q-33 0 -58.5 3t-33.5 7l-10 4v738q0 180 -179 180q-137 0 -219 -131v-787q-35 -14 -100 -14q-33 0 -58.5 3 t-35.5 7l-8 4v738q0 180 -179 180q-133 0 -219 -129v-789q-35 -14 -100 -14q-33 0 -58.5 3t-33.5 7z" />
<glyph unicode="n" horiz-adv-x="1124" d="M150 14v1049q31 14 102 14q29 0 54.5 -4t37.5 -8l10 -2v-94q113 129 310 129q152 0 234.5 -84.5t82.5 -225.5v-774q-35 -14 -102 -14q-31 0 -56.5 3t-36.5 7l-10 4v738q0 180 -190 180q-145 0 -232 -131v-787q-37 -14 -102 -14q-33 0 -58.5 3t-33.5 7z" />
<glyph unicode="o" horiz-adv-x="1114" d="M102 539q0 559 455 559q221 0 338 -133.5t117 -425.5q0 -559 -455 -559t-455 559zM311 538.5q0 -223.5 62.5 -312.5t183.5 -89t182.5 89t61.5 312.5t-61.5 312.5t-182.5 89t-183.5 -89t-62.5 -312.5z" />
<glyph unicode="p" horiz-adv-x="1140" d="M150 -461v1524q33 14 100 14q31 0 57.5 -4t36.5 -8l10 -2v-98q90 133 295 133q186 0 285.5 -130t99.5 -429t-99 -429t-286 -130q-205 0 -295 133v-574q-35 -12 -104 -12q-31 0 -55.5 3t-34.5 7zM354 410q0 -111 59.5 -187t164.5 -76q129 0 187 85t58 306.5t-58 306.5 t-187 85q-104 0 -164 -75t-60 -183v-262z" />
<glyph unicode="q" horiz-adv-x="1140" d="M106 539q0 299 99.5 429t286.5 130q201 0 294 -133v98q31 14 101 14q31 0 56.5 -4t35.5 -8l12 -2v-1524q-33 -12 -100 -12q-31 0 -57.5 3t-36.5 7l-11 2v574q-94 -133 -294 -133q-186 0 -286 130t-100 429zM317 538.5q0 -221.5 58.5 -306.5t187.5 -85q100 0 159.5 73 t63.5 179v273q0 109 -60 183.5t-163 74.5q-129 0 -187.5 -85t-58.5 -306.5z" />
<glyph unicode="r" horiz-adv-x="806" d="M150 14v1049q31 14 102 14q31 0 56.5 -4t35.5 -8l10 -2v-141q104 174 250 174q98 0 178 -52q-8 -106 -90 -172q-59 43 -127 43q-123 0 -211 -155v-746q-35 -14 -102 -14q-33 0 -58.5 3t-33.5 7z" />
<glyph unicode="s" horiz-adv-x="913" d="M98 53q0 98 56 152q133 -51 276 -51q197 0 197 147q0 49 -33 83t-70 48t-108 35q-14 4 -23 6q-63 18 -106 36.5t-90 52.5t-71 88t-24 126q0 150 97.5 236t287.5 86q90 0 162 -14.5t101 -26.5l26 -15q0 -96 -53 -145q-98 33 -215 33q-209 0 -209 -148q0 -20 7 -37.5 t22.5 -32t30 -24.5t43 -21.5t47 -17.5t54.5 -17t54 -18q127 -41 199.5 -106.5t72.5 -200.5q0 -158 -98 -242.5t-291 -84.5q-96 0 -181 18t-124 37z" />
<glyph unicode="t" horiz-adv-x="776" d="M49 999q0 23 3 42.5t5 27.5l4 8h158v187q69 43 166 43q19 0 39 -2v-228h266q12 -27 12 -76q0 -20 -3 -39.5t-7 -27.5l-2 -10h-266v-537q0 -137 47 -189.5t158 -52.5l86 9q14 -35 14 -82l-10 -74q-66 -18 -148 -18q-184 0 -268 98t-84 299v547h-158q-12 29 -12 75z" />
<glyph unicode="u" horiz-adv-x="1122" d="M141 289v774q35 14 103 14q31 0 56.5 -4t35.5 -8l10 -2v-737q0 -180 191 -181q145 0 231 131v787q37 14 102 14q33 0 58.5 -4t34.5 -8l10 -2v-1049q-31 -14 -103 -14q-29 0 -54 3t-38 7l-10 4v95q-113 -129 -309 -129q-152 0 -235 84t-83 225z" />
<glyph unicode="v" horiz-adv-x="1056" d="M39 1063q39 14 106 14q33 0 59.5 -4t37.5 -8l10 -2l221 -645q16 -51 30.5 -105.5t20.5 -83.5l6 -30h9q25 100 63 219l223 645q33 14 93 14q29 0 52 -4t34 -8l10 -2l-361 -1049q-51 -14 -123 -14q-33 0 -63.5 3t-44.5 7l-14 4z" />
<glyph unicode="w" horiz-adv-x="1632" d="M51 1063q37 14 103 14q31 0 53 -4t29 -8l6 -2l194 -653q27 -90 43 -201h6q23 125 45 201l189 653q49 14 110 14q31 0 55.5 -4t35.5 -8l10 -2l182 -649q33 -111 41 -205h6q18 92 51 203l193 651q33 14 90 14q29 0 50.5 -4t29.5 -8l8 -2l-309 -1049q-51 -14 -117 -14 q-64 0 -119 14l-157 555q-47 168 -56 295h-8q-8 -131 -57 -295l-162 -555q-45 -14 -117 -14q-70 0 -119 14z" />
<glyph unicode="x" horiz-adv-x="1030" d="M35 14l362 537l-340 512q41 14 113 14q33 0 61.5 -4t38.5 -8l13 -2l241 -363l244 363q35 14 98 14q31 0 57.5 -4t39.5 -8l10 -2l-340 -504l364 -545q-41 -14 -112 -14q-33 0 -61.5 3t-41.5 7l-10 4l-264 396l-266 -396q-37 -14 -101 -14q-31 0 -57.5 3t-38.5 7z" />
<glyph unicode="y" horiz-adv-x="1077" d="M41 1063q39 14 106 14q31 0 57.5 -4t37.5 -8l12 -2l233 -623q23 -63 41.5 -122.5t24.5 -88.5l6 -28h8q20 96 66 237l203 625q33 14 100 14q27 0 50.5 -4t33.5 -8l12 -2l-395 -1221q-61 -188 -137 -271t-230 -83q-31 0 -58.5 5t-39.5 11l-14 4l-2 5q0 4 -2 11t-5.5 16 t-4.5 20.5t-1 23.5q0 66 17 82q45 -8 92 -8q74 0 116 40t85 177l43 125q-43 4 -66 14z" />
<glyph unicode="z" horiz-adv-x="956" d="M78 88q0 39 12 80l545 741h-510q-12 35 -12 86q0 25 3 45.5t7 28.5l2 8h725q12 -29 12 -80q0 -55 -12 -88l-543 -741h543q12 -29 12 -84q0 -23 -3 -44.5t-7 -31.5l-2 -8h-760q-12 49 -12 88z" />
<glyph unicode="&#xa8;" horiz-adv-x="931" d="M190 1264v166q31 12 95 12q27 0 49 -3t33 -5l10 -4v-166q-33 -12 -92 -13q-29 0 -52.5 3t-31.5 8zM539 1264v166q29 12 92 12q27 0 50.5 -3t33.5 -5l10 -4v-166q-33 -12 -94 -13q-29 0 -51.5 3t-30.5 8z" />
<glyph unicode="&#xad;" horiz-adv-x="512" />
<glyph unicode="&#xb4;" horiz-adv-x="458" d="M43 1368l195 289q49 6 102 -17.5t76 -58.5l-256 -276q-82 14 -117 63z" />
<glyph unicode="&#xb8;" horiz-adv-x="606" d="M92 -403q-4 59 43 86q57 -29 133 -29q129 0 129 104q0 94 -114 95h-74l-27 28l41 219l113 -26l-23 -127q213 0 213 -195q0 -100 -65.5 -152.5t-181.5 -52.5q-53 0 -100.5 12.5t-67.5 24.5z" />
<glyph unicode="&#xc0;" d="M33 14l514 1446q51 14 123 15q35 0 65.5 -4.5t42.5 -8.5l15 -2l514 -1446q-37 -14 -113 -14q-31 0 -56.5 3t-35.5 7l-10 4l-127 361h-607l-129 -361q-35 -14 -100 -14q-29 0 -52.5 3t-33.5 7zM418 545h487l-186 518l-53 184h-7q-18 -82 -53 -184zM426 1815q23 35 76 58 t102 17l195 -288q-35 -49 -117 -64z" />
<glyph unicode="&#xc1;" d="M33 14l514 1446q51 14 123 15q35 0 65.5 -4.5t42.5 -8.5l15 -2l514 -1446q-37 -14 -113 -14q-31 0 -56.5 3t-35.5 7l-10 4l-127 361h-607l-129 -361q-35 -14 -100 -14q-29 0 -52.5 3t-33.5 7zM418 545h487l-186 518l-53 184h-7q-18 -82 -53 -184zM557 1604l195 288 q49 6 102 -17.5t76 -57.5l-256 -277q-82 15 -117 64z" />
<glyph unicode="&#xc2;" d="M33 14l514 1446q51 14 123 15q35 0 65.5 -4.5t42.5 -8.5l15 -2l514 -1446q-37 -14 -113 -14q-31 0 -56.5 3t-35.5 7l-10 4l-127 361h-607l-129 -361q-35 -14 -100 -14q-29 0 -52.5 3t-33.5 7zM354 1640l281 234h53l283 -234q-33 -72 -94 -90l-215 146l-213 -146 q-59 20 -95 90zM418 545h487l-186 518l-53 184h-7q-18 -82 -53 -184z" />
<glyph unicode="&#xc3;" d="M33 14l514 1446q51 14 123 15q35 0 65.5 -4.5t42.5 -8.5l15 -2l514 -1446q-37 -14 -113 -14q-31 0 -56.5 3t-35.5 7l-10 4l-127 361h-607l-129 -361q-35 -14 -100 -14q-29 0 -52.5 3t-33.5 7zM373 1634q6 12 17 30.5t56.5 51.5t100.5 37q63 4 132 -34t105 -36 q25 0 45.5 13.5t28.5 27.5l8 13q72 -14 99 -70q-6 -12 -19.5 -29.5t-60.5 -49.5t-103 -34q-63 -4 -128.5 33t-102.5 35q-29 -2 -50.5 -15.5t-29.5 -25.5l-6 -12q-72 10 -92 65zM418 545h487l-186 518l-53 184h-7q-18 -82 -53 -184z" />
<glyph unicode="&#xc4;" d="M33 14l514 1446q51 14 123 15q35 0 65.5 -4.5t42.5 -8.5l15 -2l514 -1446q-37 -14 -113 -14q-31 0 -56.5 3t-35.5 7l-10 4l-127 361h-607l-129 -361q-35 -14 -100 -14q-29 0 -52.5 3t-33.5 7zM397 1561v165q29 12 92 13q27 0 50.5 -3t33.5 -7l11 -3v-165q-33 -12 -95 -13 q-29 0 -51 3t-32 5zM418 545h487l-186 518l-53 184h-7q-18 -82 -53 -184zM745 1561v165q29 12 93 13q27 0 50 -3t34 -7l10 -3v-165q-33 -12 -94 -13q-29 0 -51.5 3t-32.5 5z" />
<glyph unicode="&#xc5;" d="M33 14l497 1399q-111 59 -110 193q0 104 72.5 164.5t173.5 60.5q98 0 172.5 -59.5t74.5 -165.5q0 -128 -106 -187l500 -1405q-37 -14 -113 -14q-31 0 -56.5 3t-35.5 7l-10 4l-127 361h-607l-129 -361q-35 -14 -100 -14q-29 0 -52.5 3t-33.5 7zM418 545h487l-186 518 l-53 184h-7q-18 -82 -53 -184zM537 1606q0 -51 32.5 -87t94 -36t96.5 36.5t35 86t-35 85t-96.5 35.5t-94 -35.5t-32.5 -84.5z" />
<glyph unicode="&#xc6;" horiz-adv-x="1771" d="M10 16l887 1459h750q39 -80 0 -170h-545v-476h442q33 -88 0 -170h-442v-489h565q37 -94 0 -170h-758v367h-469l-209 -351q-45 -16 -112 -16q-76 0 -109 16zM541 537h368v616z" />
<glyph unicode="&#xc7;" horiz-adv-x="1150" d="M119 737q0 373 151.5 565.5t446.5 192.5q100 0 187 -17.5t124 -35.5l39 -17q6 -35 -14 -82q-8 -23 -20.5 -41t-20.5 -24l-8 -6q-117 47 -265 47q-193 0 -297 -131t-104 -452.5t103.5 -448.5t297.5 -127q74 0 144.5 12t105.5 25l35 10q29 -23 47 -70q8 -20 12 -42.5 t4 -33.5v-12q-129 -68 -360 -69l-12 -74q213 0 213 -195q0 -100 -65.5 -152.5t-182.5 -52.5q-53 0 -100.5 12.5t-67.5 24.5l-18 13q-4 59 43 86q57 -29 133 -29q129 0 129 104q0 94 -115 95h-74l-26 28l26 148q-492 66 -491 749z" />
<glyph unicode="&#xc8;" horiz-adv-x="1138" d="M182 0v1475h832q16 -49 16 -80q0 -47 -16 -90h-623v-476h520q16 -49 17 -81q0 -43 -17 -86h-520v-492h643q16 -53 17 -82q0 -43 -17 -88h-852zM352 1815q23 35 76 58t102 17l195 -288q-35 -50 -117 -64z" />
<glyph unicode="&#xc9;" horiz-adv-x="1138" d="M182 0v1475h832q16 -49 16 -80q0 -47 -16 -90h-623v-476h520q16 -49 17 -81q0 -43 -17 -86h-520v-492h643q16 -53 17 -82q0 -43 -17 -88h-852zM438 1606l195 288q49 6 102 -17t76 -58l-256 -277q-82 14 -117 64z" />
<glyph unicode="&#xca;" horiz-adv-x="1138" d="M182 0v1475h832q16 -49 16 -80q0 -47 -16 -90h-623v-476h520q16 -49 17 -81q0 -43 -17 -86h-520v-492h643q16 -53 17 -82q0 -43 -17 -88h-852zM287 1640l282 234h54l282 -234q-37 -74 -94 -90l-215 146l-213 -146q-61 20 -96 90z" />
<glyph unicode="&#xcb;" horiz-adv-x="1138" d="M182 0v1475h832q16 -49 16 -80q0 -47 -16 -90h-623v-476h520q16 -49 17 -81q0 -43 -17 -86h-520v-492h643q16 -53 17 -82q0 -43 -17 -88h-852zM328 1561v165q29 12 94 13q27 0 49.5 -3t32.5 -7l10 -3v-165q-33 -12 -92 -13q-29 0 -52.5 3t-33.5 5zM676 1561v165 q29 12 92 13q27 0 50.5 -3t33.5 -7l10 -3v-165q-33 -12 -94 -13q-29 0 -51.5 3t-32.5 5z" />
<glyph unicode="&#xcc;" horiz-adv-x="573" d="M55 1815q23 35 76 58t102 17l195 -288q-35 -50 -117 -64zM182 14v1446q35 14 103 15q33 0 59.5 -4.5t36.5 -8.5l10 -2v-1446q-37 -14 -104 -14q-33 0 -59.5 3t-34.5 7z" />
<glyph unicode="&#xcd;" horiz-adv-x="573" d="M121 1606l194 288q49 6 102.5 -17t76.5 -58l-256 -277q-82 14 -117 64zM182 14v1446q35 14 103 15q33 0 59.5 -4.5t36.5 -8.5l10 -2v-1446q-37 -14 -104 -14q-33 0 -59.5 3t-34.5 7z" />
<glyph unicode="&#xce;" horiz-adv-x="573" d="M-23 1640l283 234h53l283 -234q-37 -74 -94 -90l-215 146l-213 -146q-61 20 -97 90zM182 14v1446q35 14 103 15q33 0 59.5 -4.5t36.5 -8.5l10 -2v-1446q-37 -14 -104 -14q-33 0 -59.5 3t-34.5 7z" />
<glyph unicode="&#xcf;" horiz-adv-x="573" d="M20 1561v165q31 12 95 13q27 0 49 -3t33 -7l10 -3v-165q-33 -12 -92 -13q-29 0 -52.5 3t-33.5 5zM182 14v1446q35 14 103 15q33 0 59.5 -4.5t36.5 -8.5l10 -2v-1446q-37 -14 -104 -14q-33 0 -59.5 3t-34.5 7zM369 1561v165q29 12 92 13q27 0 50.5 -3t33.5 -7l10 -3v-165 q-33 -12 -94 -13q-29 0 -51.5 3t-32.5 5z" />
<glyph unicode="&#xd0;" horiz-adv-x="1386" d="M45 659q-23 76 0 142h162v674h455q297 0 449.5 -172.5t152.5 -565.5t-153 -565t-449 -172h-455v659h-162zM416 174h231q96 0 164 23.5t122 84t80.5 174t26.5 281.5q0 170 -26.5 283t-80.5 173t-122 83.5t-164 23.5h-231v-499h291q25 -66 0 -142h-291v-485z" />
<glyph unicode="&#xd1;" horiz-adv-x="1433" d="M182 14v1446q43 14 125 15q37 0 68 -4.5t43 -8.5l12 -2l508 -923q33 -59 65.5 -127t49.5 -107l14 -39h6q-14 152 -14 342v854q31 14 98 15q31 0 54.5 -4.5t31.5 -8.5l8 -2v-1446q-39 -14 -121 -14q-37 0 -68.5 3t-45.5 7l-12 4l-515 932q-33 59 -63.5 125t-44.5 103 l-12 36h-9q14 -137 15 -344v-852q-31 -14 -99 -14q-29 0 -52 3t-31 7zM449 1655q6 10 20 27.5t62.5 45t103.5 27.5q61 0 126.5 -34.5t102.5 -34.5q27 0 51.5 13t34.5 25l11 15q61 -23 75 -94q-8 -12 -24.5 -30t-63.5 -42.5t-98 -24.5q-63 0 -127 34t-100 34 q-29 0 -53.5 -13.5t-34.5 -25.5l-11 -14q-63 33 -75 92z" />
<glyph unicode="&#xd2;" horiz-adv-x="1392" d="M119 737q0 383 151.5 570.5t426 187.5t426 -186.5t151.5 -571.5q0 -758 -577.5 -758t-577.5 758zM338 737.5q0 -321.5 91 -452.5t267 -131t267.5 131t91.5 452.5t-91.5 452.5t-267.5 131t-267 -131t-91 -452.5zM496 1815q23 35 76 58t102 17l188 -282q-35 -51 -117 -64z " />
<glyph unicode="&#xd3;" horiz-adv-x="1392" d="M119 737q0 383 151.5 570.5t426 187.5t426 -186.5t151.5 -571.5q0 -758 -577.5 -758t-577.5 758zM338 737.5q0 -321.5 91 -452.5t267 -131t267.5 131t91.5 452.5t-91.5 452.5t-267.5 131t-267 -131t-91 -452.5zM647 1651l191 282q49 4 102 -18.5t76 -56.5l-252 -273 q-82 15 -117 66z" />
<glyph unicode="&#xd4;" horiz-adv-x="1392" d="M119 737q0 383 151.5 570.5t426 187.5t426 -186.5t151.5 -571.5q0 -758 -577.5 -758t-577.5 758zM338 737.5q0 -321.5 91 -452.5t267 -131t267.5 131t91.5 452.5t-91.5 452.5t-267.5 131t-267 -131t-91 -452.5zM391 1640l281 234h53l283 -234q-37 -74 -95 -90l-215 146 l-213 -146q-59 20 -94 90z" />
<glyph unicode="&#xd5;" horiz-adv-x="1392" d="M119 737q0 383 151.5 570.5t426 187.5t426 -186.5t151.5 -571.5q0 -757 -577.5 -757t-577.5 757zM338 737.5q0 -321.5 91 -452.5t267 -131t267.5 131t91.5 452.5t-91.5 452.5t-267.5 131t-267 -131t-91 -452.5zM412 1673q6 10 19 27.5t59.5 46.5t101.5 31q63 2 128.5 -29 t102.5 -31q29 0 52.5 14.5t33.5 28.5l9 15q29 -10 50 -36t27 -54q-6 -12 -19 -29t-59.5 -46.5t-101.5 -29.5q-53 -2 -122.5 28.5t-108.5 30.5q-29 0 -52.5 -14t-31.5 -29l-11 -14q-61 29 -77 90z" />
<glyph unicode="&#xd6;" horiz-adv-x="1392" d="M119 737q0 383 151.5 570.5t426 187.5t426 -186.5t151.5 -571.5q0 -758 -577.5 -758t-577.5 758zM338 737.5q0 -321.5 91 -452.5t267 -131t267.5 131t91.5 452.5t-91.5 452.5t-267.5 131t-267 -131t-91 -452.5zM432 1581v166q29 12 94 12q27 0 49.5 -3t32.5 -7l10 -2 v-166q-33 -12 -92 -12q-29 0 -52 3t-32 5zM780 1581v166q29 12 92 12q27 0 50.5 -3t33.5 -7l11 -2v-166q-33 -12 -95 -12q-29 0 -51 3t-30 5z" />
<glyph unicode="&#xd8;" horiz-adv-x="1390" d="M117 737q0 383 151.5 570.5t425.5 187.5q176 0 303 -76l90 152q86 -6 144 -68l-115 -190q156 -190 156 -576q0 -758 -578 -757q-186 0 -319 86l-94 -162q-94 4 -146 67l123 205q-141 188 -141 561zM336 737q0 -225 51 -348l514 871q-78 61 -207 61q-176 0 -267 -131 t-91 -453zM475 229q78 -76 219 -75q176 0 267.5 131t91.5 452q-1 236 -62 369z" />
<glyph unicode="&#xd9;" horiz-adv-x="1376" d="M172 500v960q35 14 102 15q31 0 57.5 -4.5t37.5 -8.5l10 -2v-993q0 -147 82 -229t229.5 -82t228 81.5t80.5 229.5v993q33 14 101 15q31 0 56.5 -4.5t35.5 -8.5l12 -2v-960q0 -248 -140 -384t-378 -136q-236 0 -375 138t-139 382zM440 1815q23 35 76 58t102 17l189 -280 q-35 -52 -117 -66z" />
<glyph unicode="&#xda;" horiz-adv-x="1376" d="M172 500v960q35 14 102 15q31 0 57.5 -4.5t37.5 -8.5l10 -2v-993q0 -147 82 -229t229.5 -82t228 81.5t80.5 229.5v993q33 14 101 15q31 0 56.5 -4.5t35.5 -8.5l12 -2v-960q0 -248 -140 -384t-378 -136q-236 0 -375 138t-139 382zM547 1606l194 288q49 6 102.5 -17 t76.5 -58l-256 -277q-82 14 -117 64z" />
<glyph unicode="&#xdb;" horiz-adv-x="1376" d="M172 500v960q35 14 102 15q31 0 57.5 -4.5t37.5 -8.5l10 -2v-993q0 -147 82 -229t229.5 -82t228 81.5t80.5 229.5v993q33 14 101 15q31 0 56.5 -4.5t35.5 -8.5l12 -2v-960q0 -248 -140 -384t-378 -136q-236 0 -375 138t-139 382zM395 1640l283 234h53l283 -234 q-37 -74 -94 -90l-215 146l-213 -146q-61 20 -97 90z" />
<glyph unicode="&#xdc;" horiz-adv-x="1376" d="M172 500v960q35 14 102 15q31 0 57.5 -4.5t37.5 -8.5l10 -2v-993q0 -147 82 -229t229.5 -82t228 81.5t80.5 229.5v993q33 14 101 15q31 0 56.5 -4.5t35.5 -8.5l12 -2v-960q0 -248 -140 -384t-378 -136q-236 0 -375 138t-139 382zM424 1571v168q31 12 94 12q27 0 49.5 -3 t32.5 -7l10 -2v-168q-33 -12 -92 -12q-29 0 -52.5 3t-31.5 7zM772 1571v168q29 12 92 12q27 0 50.5 -3t33.5 -7l10 -2v-168q-33 -12 -94 -12q-29 0 -51 3t-31 7z" />
<glyph unicode="&#xdd;" horiz-adv-x="1298" d="M39 1460q45 14 127 15q33 0 62.5 -4.5t41.5 -8.5l15 -2l374 -633l385 633q37 14 109 15q31 0 60.5 -4.5t43.5 -8.5l13 -2l-518 -844v-602q-35 -14 -103 -14q-33 0 -59.5 3t-36.5 7l-10 4v598zM522 1606l195 288q49 6 102 -17.5t76 -57.5l-256 -277q-82 15 -117 64z" />
<glyph unicode="&#xde;" horiz-adv-x="1245" d="M182 14v1446q35 14 103 15q33 0 59.5 -4.5t36.5 -8.5l10 -2v-262h326q201 0 320.5 -120t119.5 -318.5t-119.5 -317t-320.5 -118.5h-326v-310q-37 -14 -104 -14q-33 0 -59.5 3t-34.5 7zM391 498h299q121 0 185.5 68.5t64.5 193.5t-64.5 194.5t-185.5 69.5h-299v-526z" />
<glyph unicode="&#xdf;" horiz-adv-x="1171" d="M150 14v1125q0 397 436 397q195 0 298 -103.5t101 -252.5q0 -98 -43 -193q-8 0 -21.5 -3t-47 -15.5t-59.5 -29.5t-47.5 -52t-21.5 -80q0 -55 37 -100t88.5 -79t103.5 -74t89 -107.5t37 -157.5q0 -152 -93.5 -230.5t-254.5 -78.5q-63 0 -120 10t-83 18l-25 10 q-8 84 43 142q68 -23 154 -23t135 38t49 108q0 57 -37 103t-89 82t-104 75t-89 101.5t-37 141.5q0 61 21.5 112.5t53 80.5t62.5 48.5t51 25.5l23 8q20 61 20 115q-2 86 -51 141t-145 55q-229 0 -230 -233v-1125q-35 -14 -102 -14q-33 0 -58.5 3t-33.5 7z" />
<glyph unicode="&#xe0;" horiz-adv-x="1054" d="M82 322q0 322 393 321q127 0 234 -12v86q0 104 -49.5 156.5t-161.5 52.5q-63 0 -132 -12.5t-106 -24.5l-37 -15q-35 35 -47 62q-12 29 -12 86q154 76 358 76q215 0 303 -96.5t88 -301.5v-686q-23 -14 -79 -14q-23 0 -43.5 3t-28.5 7l-10 4l-31 131q-82 -166 -322 -165 q-147 0 -232 87t-85 255zM248 1513q23 35 76 58.5t102 17.5l195 -289q-35 -49 -117 -63zM293 322q0 -184 178 -185q115 0 176.5 82t61.5 201v72q-141 12 -207 12q-209 0 -209 -182z" />
<glyph unicode="&#xe1;" horiz-adv-x="1054" d="M82 322q0 322 393 321q127 0 234 -12v84q0 106 -48.5 158.5t-162.5 52.5q-63 0 -132 -12.5t-106 -24.5l-37 -15q-35 35 -47 62q-12 29 -12 86q154 76 358 76q215 0 303 -96.5t88 -301.5v-686q-23 -14 -79 -14q-23 0 -43.5 3t-28.5 7l-10 4l-31 131q-82 -166 -322 -165 q-147 0 -232 87t-85 255zM293 322q0 -184 178 -185q115 0 176.5 82t61.5 201v72q-141 12 -207 12q-209 0 -209 -182zM373 1300l192 289q49 6 103.5 -16.5t76.5 -59.5l-256 -276q-81 12 -116 63z" />
<glyph unicode="&#xe2;" horiz-adv-x="1054" d="M82 322q0 322 393 321q127 0 234 -12v90q0 104 -49.5 154.5t-161.5 50.5q-63 0 -132 -12.5t-106 -24.5l-37 -15q-35 35 -47 62q-12 29 -12 86q154 76 358 76q215 0 303 -96.5t88 -301.5v-686q-23 -14 -79 -14q-23 0 -43.5 3t-28.5 7l-10 4l-31 131q-82 -166 -322 -165 q-147 0 -232 87t-85 255zM231 1323l277 225h51l277 -225q-35 -70 -93 -90l-211 141l-208 -139q-57 20 -93 88zM293 322q0 -184 178 -185q115 0 176.5 82t61.5 201v72q-141 12 -207 12q-209 0 -209 -182z" />
<glyph unicode="&#xe3;" horiz-adv-x="1054" d="M82 322q0 322 393 321q127 0 234 -12v94q0 106 -49.5 153.5t-161.5 47.5q-63 0 -132 -12.5t-106 -24.5l-37 -15q-35 35 -47 62t-12 86q154 76 358 76q215 0 303 -96.5t88 -301.5v-686q-23 -14 -79 -14q-23 0 -43.5 3t-28.5 7l-10 4l-31 131q-82 -166 -322 -165 q-147 0 -232 87t-85 255zM240 1364q4 8 21.5 28.5t64.5 46t98 25.5q63 0 127.5 -34.5t101.5 -34.5q61 0 97 53q61 -23 75 -92q-4 -8 -21.5 -27.5t-64.5 -45.5t-98 -26q-63 0 -126.5 35t-102.5 35q-29 0 -53.5 -14.5t-34.5 -26.5l-11 -14q-61 33 -73 92zM293 322 q0 -184 178 -185q115 0 176.5 82t61.5 201v72q-141 12 -207 12q-209 0 -209 -182z" />
<glyph unicode="&#xe4;" horiz-adv-x="1054" d="M82 322q0 322 393 321q127 0 234 -12v88q0 102 -49.5 154.5t-161.5 52.5q-63 0 -132 -12.5t-106 -24.5l-37 -15q-35 35 -47 62q-12 29 -12 86q154 76 358 76q215 0 303 -96.5t88 -301.5v-686q-23 -14 -79 -14q-23 0 -43.5 3t-28.5 7l-10 4l-31 131q-82 -166 -322 -165 q-147 0 -232 87t-85 255zM266 1278v166q29 12 92 12q27 0 50.5 -3t33.5 -7l11 -2v-166q-33 -12 -95 -12q-29 0 -51 3t-33 5zM293 322q0 -184 178 -185q115 0 176.5 82t61.5 201v72q-141 12 -207 12q-209 0 -209 -182zM612 1278v166q31 12 95 12q27 0 50 -3t34 -7l8 -2v-166 q-31 -12 -92 -12q-29 0 -52.5 3t-31.5 5z" />
<glyph unicode="&#xe5;" horiz-adv-x="1054" d="M82 322q0 322 393 321q127 0 234 -12v82q0 109 -48.5 161t-162.5 52q-63 0 -132 -12.5t-106 -24.5l-37 -15q-35 35 -47 62q-12 29 -12 86q154 76 358 76q215 0 303 -96.5t88 -301.5v-686q-23 -14 -79 -14q-23 0 -43.5 3t-28.5 7l-10 4l-31 131q-82 -166 -322 -165 q-147 0 -232 87t-85 255zM289 1419q0 100 71.5 157.5t170 57.5t171 -56t72.5 -158.5t-70.5 -161t-175 -58.5t-172 58.5t-67.5 160.5zM293 322q0 -184 178 -185q115 0 176.5 82t61.5 201v72q-141 12 -207 12q-209 0 -209 -182zM412 1419q0 -45 30.5 -76.5t85.5 -31.5 q57 0 89 32.5t32 75.5q0 47 -31.5 78t-89.5 31q-55 0 -85.5 -32t-30.5 -77z" />
<glyph unicode="&#xe6;" horiz-adv-x="1574" d="M80 322q0 162 95 236.5t288 74.5h215v92q0 106 -45 153.5t-154 47.5q-59 0 -123.5 -12.5t-99.5 -24.5l-35 -15q-55 53 -59 148q145 76 344 76q219 0 297 -160q106 160 295 160q184 0 285.5 -104.5t101.5 -307.5q0 -51 -5 -100t-12 -74l-6 -23h-590q14 -180 80 -262 t185 -82q61 0 119.5 13.5t84.5 27.5l27 15q51 -41 62 -135q-12 -10 -35 -24.5t-106 -38t-181 -23.5q-141 0 -227 65.5t-119 149.5q-29 -84 -117 -149.5t-237 -65.5q-160 0 -244 87t-84 255zM289 317q0 -180 157 -180q111 0 171.5 76t60.5 195v81h-189q-109 0 -154.5 -39.5 t-45.5 -132.5zM874 633h402q6 31 6 80q0 223 -184 223q-201 0 -224 -303z" />
<glyph unicode="&#xe7;" horiz-adv-x="913" d="M102 539q0 274 114 416.5t337 142.5q88 0 156.5 -12.5t93.5 -24.5l24 -14q-4 -86 -59 -140q-72 31 -180 31q-145 0 -210 -98.5t-65 -301t68 -298t215 -95.5q49 0 97 9.5t73 17.5l22 8q53 -47 60 -139q-86 -59 -287 -61l-14 -93q213 0 213 -190q0 -100 -65.5 -150.5 t-182.5 -50.5q-53 0 -100 12.5t-68 24.5l-18 12q-4 59 43 86q57 -29 133 -28q129 0 129 100q0 92 -115 92h-74l-26 29l30 166q-344 63 -344 549z" />
<glyph unicode="&#xe8;" horiz-adv-x="1052" d="M102 545q0 281 121 417t334 136q193 0 299.5 -105.5t106.5 -306.5q0 -57 -6.5 -109.5t-10.5 -76.5l-6 -25h-627q12 -176 82 -248.5t203 -72.5q66 0 126 15t87 30l29 14q61 -55 65 -147q-12 -10 -37.5 -24.5t-114.5 -38t-188 -23.5q-463 0 -463 565zM311 1513 q23 35 76 58.5t102 17.5l195 -289q-35 -49 -117 -63zM313 621h439q6 49 6 92q0 223 -201 223q-221 0 -244 -315z" />
<glyph unicode="&#xe9;" horiz-adv-x="1052" d="M102 545q0 281 121 417t334 136q193 0 299.5 -105.5t106.5 -306.5q0 -57 -6.5 -109.5t-10.5 -76.5l-6 -25h-627q12 -176 82 -248.5t203 -72.5q66 0 126 15t87 30l29 14q61 -55 65 -147q-12 -10 -37.5 -24.5t-114.5 -38t-188 -23.5q-463 0 -463 565zM313 621h439 q6 49 6 92q0 223 -201 223q-221 0 -244 -315zM379 1300l194 289q49 6 102.5 -17.5t76.5 -58.5l-256 -276q-82 14 -117 63z" />
<glyph unicode="&#xea;" horiz-adv-x="1052" d="M102 545q0 281 121 417t334 136q193 0 299.5 -105.5t106.5 -306.5q0 -57 -6.5 -109.5t-10.5 -76.5l-6 -25h-627q12 -176 82 -248.5t203 -72.5q66 0 126 15t87 30l29 14q61 -55 65 -147q-12 -10 -37.5 -24.5t-114.5 -38t-188 -23.5q-463 0 -463 565zM248 1323l276 225h51 l277 -225q-31 -70 -92 -90l-209 141l-209 -139q-59 20 -94 88zM313 621h439q6 49 6 92q0 223 -201 223q-221 0 -244 -315z" />
<glyph unicode="&#xeb;" horiz-adv-x="1052" d="M102 545q0 281 121 417t334 136q193 0 299.5 -105.5t106.5 -306.5q0 -57 -6.5 -109.5t-10.5 -76.5l-6 -25h-627q12 -176 82 -248.5t203 -72.5q66 0 126 15t87 30l29 14q61 -55 65 -147q-12 -10 -37.5 -24.5t-114.5 -38t-188 -23.5q-463 0 -463 565zM285 1268v168 q29 12 92 12q27 0 50.5 -3t33.5 -7l10 -2v-168q-33 -12 -94 -13q-29 0 -51.5 3.5t-30.5 7.5zM313 621h439q6 49 6 92q0 223 -201 223q-221 0 -244 -315zM631 1268v168q31 12 94 12q27 0 49.5 -3t32.5 -7l10 -2v-168q-33 -12 -92 -13q-29 0 -52.5 3.5t-33.5 7.5z" />
<glyph unicode="&#xec;" horiz-adv-x="512" d="M12 1518q23 35 76 58t102 17l195 -288q-35 -50 -117 -64zM154 14v1049q31 14 102 14q31 0 56.5 -4t35.5 -8l10 -2v-1049q-35 -14 -102 -14q-33 0 -58.5 3t-33.5 7z" />
<glyph unicode="&#xed;" horiz-adv-x="512" d="M111 1300l194 289q49 6 102 -17.5t76 -58.5l-256 -276q-82 14 -116 63zM154 14v1049q31 14 102 14q31 0 56.5 -4t35.5 -8l10 -2v-1049q-35 -14 -102 -14q-33 0 -58.5 3t-33.5 7z" />
<glyph unicode="&#xee;" horiz-adv-x="512" d="M-43 1323l274 225h52l278 -225q-35 -70 -94 -90l-209 141l-209 -139q-57 18 -92 88zM154 14v1049q31 14 102 14q31 0 56.5 -4t35.5 -8l10 -2v-1049q-35 -14 -102 -14q-33 0 -58.5 3t-33.5 7z" />
<glyph unicode="&#xef;" horiz-adv-x="512" d="M-16 1272v168q31 12 94 12q27 0 49.5 -3t32.5 -7l10 -2v-168q-33 -10 -92 -10zM154 14v1049q31 14 102 14q31 0 56.5 -4t35.5 -8l10 -2v-1049q-35 -14 -102 -14q-33 0 -58.5 3t-33.5 7zM332 1272v168q29 12 92 12q27 0 50.5 -3t33.5 -7l10 -2v-168q-33 -10 -94 -10 q-29 0 -51.5 2t-32.5 6z" />
<glyph unicode="&#xf0;" horiz-adv-x="1136" d="M102 516.5q0 536.5 437 536.5q166 0 260 -101q-53 186 -193 301l-235 -149q-59 49 -72 110l182 115q-98 53 -211 76q-6 86 43 131q172 -27 318 -113l164 105q53 -39 69 -109l-121 -76q287 -254 287 -714q0 -360 -117.5 -504.5t-353.5 -144.5q-457 0 -457 536.5zM313 516 q0 -213 62.5 -296t183.5 -83t184.5 83t63.5 296q0 215 -64.5 297t-187.5 82q-121 0 -181.5 -83t-60.5 -296z" />
<glyph unicode="&#xf1;" horiz-adv-x="1124" d="M150 14v1049q31 14 102 14q29 0 54.5 -4t37.5 -8l10 -2v-94q113 129 310 129q152 0 234.5 -84t82.5 -226v-774q-35 -14 -102 -14q-31 0 -56.5 3t-36.5 7l-10 4v738q0 180 -190 180q-145 0 -232 -131v-787q-37 -14 -102 -14q-33 0 -58.5 3t-33.5 7zM260 1366 q6 10 20.5 27.5t62.5 45t103 27.5q61 0 127 -33.5t103 -33.5q29 0 52.5 14t33.5 29l10 14q63 -27 78 -94q-6 -10 -20.5 -27.5t-63.5 -45t-104 -27.5q-63 0 -127 33.5t-103 33.5q-29 0 -52.5 -14.5t-33.5 -28.5l-10 -14q-68 35 -76 94z" />
<glyph unicode="&#xf2;" horiz-adv-x="1114" d="M102 539q0 559 455 559q221 0 338 -133.5t117 -425.5q0 -559 -455 -559t-455 559zM266 1513q23 37 77 59.5t103 16.5l193 -289q-35 -49 -117 -63zM311 538.5q0 -223.5 62.5 -312.5t183.5 -89t182.5 89t61.5 312.5t-61.5 312.5t-182.5 89t-183.5 -89t-62.5 -312.5z" />
<glyph unicode="&#xf3;" horiz-adv-x="1114" d="M102 539q0 559 455 559q221 0 338 -133.5t117 -425.5q0 -559 -455 -559t-455 559zM311 538.5q0 -223.5 62.5 -312.5t183.5 -89t182.5 89t61.5 312.5t-61.5 312.5t-182.5 89t-183.5 -89t-62.5 -312.5zM375 1300l194 289q49 6 102.5 -17.5t76.5 -58.5l-256 -276 q-82 14 -117 63z" />
<glyph unicode="&#xf4;" horiz-adv-x="1114" d="M102 539q0 559 455 559q221 0 338 -133.5t117 -425.5q0 -559 -455 -559t-455 559zM246 1323l276 225h51l277 -225q-35 -70 -92 -90l-211 141l-209 -139q-57 20 -92 88zM311 538.5q0 -223.5 62.5 -312.5t183.5 -89t182.5 89t61.5 312.5t-61.5 312.5t-182.5 89t-183.5 -89 t-62.5 -312.5z" />
<glyph unicode="&#xf5;" horiz-adv-x="1114" d="M102 539q0 559 455 559q221 0 338 -133.5t117 -425.5q0 -559 -455 -559t-455 559zM252 1360q6 10 20.5 27.5t62.5 45t103 27.5q63 0 128 -33.5t102 -33.5q29 0 52 14t34 29l10 14q66 -27 76 -94q-6 -10 -20.5 -27.5t-62.5 -45.5t-104 -28q-63 0 -127.5 34t-101.5 34 q-29 0 -52.5 -14.5t-33.5 -28.5l-10 -14q-68 33 -76 94zM311 538.5q0 -223.5 62.5 -312.5t183.5 -89t182.5 89t61.5 312.5t-61.5 312.5t-182.5 89t-183.5 -89t-62.5 -312.5z" />
<glyph unicode="&#xf6;" horiz-adv-x="1114" d="M102 539q0 559 455 559q221 0 338 -133.5t117 -425.5q0 -559 -455 -559t-455 559zM281 1276v168q31 12 94 12q27 0 49 -3t33 -7l10 -2v-168q-33 -10 -92 -10zM311 538.5q0 -223.5 62.5 -312.5t183.5 -89t182.5 89t61.5 312.5t-61.5 312.5t-182.5 89t-183.5 -89 t-62.5 -312.5zM629 1276v168q29 12 92 12q27 0 50.5 -3t33.5 -7l10 -2v-168q-33 -10 -94 -10q-29 0 -51.5 2t-30.5 6z" />
<glyph unicode="&#xf8;" horiz-adv-x="1116" d="M102 539q0 559 457 559q137 0 227 -49l76 125q63 -2 119 -58l-88 -147q121 -137 121 -430q0 -559 -455 -559q-129 0 -227 47l-74 -125q-74 2 -121 57l88 147q-123 139 -123 433zM311 539q0 -145 39 -230l348 590q-55 41 -139 41q-123 0 -185.5 -89t-62.5 -312zM422 176 q49 -39 137 -39q121 0 182.5 89t61.5 313q0 141 -33 227z" />
<glyph unicode="&#xf9;" horiz-adv-x="1122" d="M141 289v774q35 14 103 14q31 0 56.5 -4t35.5 -8l10 -2v-737q0 -180 191 -181q145 0 231 131v787q37 14 102 14q33 0 58.5 -4t34.5 -8l10 -2v-1049q-31 -14 -103 -14q-29 0 -54 3t-38 7l-10 4v95q-113 -129 -309 -129q-152 0 -235 83.5t-83 225.5zM311 1513 q23 35 76 58.5t102 17.5l195 -289q-35 -49 -117 -63z" />
<glyph unicode="&#xfa;" horiz-adv-x="1122" d="M141 289v774q35 14 103 14q31 0 56.5 -4t35.5 -8l10 -2v-737q0 -180 191 -181q145 0 231 131v787q37 14 102 14q33 0 58.5 -4t34.5 -8l10 -2v-1049q-31 -14 -103 -14q-29 0 -54 3t-38 7l-10 4v95q-113 -129 -309 -129q-152 0 -235 84t-83 225zM395 1300l195 289 q49 6 102 -17.5t76 -58.5l-256 -276q-82 14 -117 63z" />
<glyph unicode="&#xfb;" horiz-adv-x="1122" d="M141 289v774q35 14 103 14q31 0 56.5 -4t35.5 -8l10 -2v-737q0 -180 191 -181q145 0 231 131v787q37 14 102 14q33 0 58.5 -4t34.5 -8l10 -2v-1049q-31 -14 -103 -14q-29 0 -54 3t-38 7l-10 4v95q-113 -129 -309 -129q-152 0 -235 84t-83 225zM260 1323l277 225h51 l276 -225q-35 -70 -92 -90l-209 141l-209 -139q-59 20 -94 88z" />
<glyph unicode="&#xfc;" horiz-adv-x="1122" d="M141 289v774q35 14 103 14q31 0 56.5 -4t35.5 -8l10 -2v-737q0 -180 191 -181q145 0 231 131v787q37 14 102 14q33 0 58.5 -4t34.5 -8l10 -2v-1049q-31 -14 -103 -14q-29 0 -54 3t-38 7l-10 4v95q-113 -129 -309 -129q-152 0 -235 83.5t-83 225.5zM293 1278v168 q29 12 92 12q27 0 50.5 -3t33.5 -5l10 -4v-168q-33 -12 -94 -12q-29 0 -51.5 3t-30.5 5zM641 1278v168q29 12 92 12q27 0 50.5 -3t33.5 -5l10 -4v-168q-33 -12 -94 -12q-29 0 -51.5 3t-30.5 5z" />
<glyph unicode="&#xfd;" horiz-adv-x="1077" d="M41 1063q39 14 106 14q31 0 57.5 -4t37.5 -8l12 -2l233 -623q23 -63 41.5 -122.5t24.5 -88.5l6 -28h8q20 96 66 237l203 625q33 14 100 14q27 0 50.5 -4t33.5 -8l12 -2l-395 -1221q-61 -188 -137 -271t-230 -83q-31 0 -58.5 5t-39.5 11l-14 4l-2 5q0 4 -2 11t-5.5 16 t-4.5 20.5t-1 23.5q0 66 17 82q45 -8 92 -8q74 0 116 40t85 177l43 125q-43 4 -66 14zM391 1300l195 289q49 6 102 -17.5t76 -58.5l-256 -276q-82 14 -117 63z" />
<glyph unicode="&#xfe;" horiz-adv-x="1140" d="M150 -461v1983q33 14 100 14q31 0 57.5 -4t36.5 -8l10 -2v-557q90 133 295 133q186 0 285.5 -130t99.5 -429t-99 -429t-286 -130q-205 0 -295 133v-574q-35 -12 -104 -12q-31 0 -55.5 3t-34.5 7zM354 410q0 -111 59.5 -187t164.5 -76q129 0 187 85t58 306.5t-58 306.5 t-187 85q-104 0 -164 -75t-60 -183v-262z" />
<glyph unicode="&#xff;" horiz-adv-x="1077" d="M41 1063q39 14 106 14q31 0 57.5 -4t37.5 -8l12 -2l233 -623q23 -63 41.5 -122.5t24.5 -88.5l6 -28h8q20 96 66 237l203 625q33 14 100 14q27 0 50.5 -4t33.5 -8l12 -2l-395 -1221q-61 -188 -137 -271t-230 -83q-31 0 -58.5 5t-39.5 11l-14 4l-2 5q0 4 -2 11t-5.5 16 t-4.5 20.5t-1 23.5q0 66 17 82q45 -8 92 -8q74 0 116 40t85 177l43 125q-43 4 -66 14zM287 1280v166q29 12 94 12q27 0 49.5 -3t32.5 -5l10 -4v-166q-33 -12 -92 -12q-29 0 -52.5 3t-33.5 7zM635 1280v166q29 12 92 12q27 0 50.5 -3t33.5 -5l10 -4v-166q-33 -12 -94 -12 q-29 0 -51.5 3t-32.5 7z" />
<glyph unicode="&#x152;" horiz-adv-x="1787" d="M119 737q0 387 153.5 572.5t438.5 185.5q92 0 178 -20h774q16 -43 16 -84q0 -43 -16 -86h-549v-476h447q16 -39 16 -81.5t-16 -85.5h-447v-492h569q16 -45 16.5 -86t-16.5 -84h-796q-86 -20 -176 -20q-283 0 -437.5 186t-154.5 571zM338 737.5q0 -321.5 96 -452.5 t277 -131q117 0 196 36v1096q-92 35 -196 35q-180 0 -276.5 -131t-96.5 -452.5z" />
<glyph unicode="&#x153;" horiz-adv-x="1669" d="M102 539q0 559 453 559q225 0 315 -180q98 180 310 180q188 0 293.5 -105.5t105.5 -306.5q0 -57 -5 -110.5t-11 -75.5l-7 -25h-595q14 -180 74.5 -255t185.5 -75q63 0 122.5 13.5t88.5 27.5l28 15q55 -43 62 -135q-12 -10 -37 -24.5t-111 -38t-186 -23.5q-223 0 -318 174 q-102 -174 -315 -174q-453 0 -453 559zM313 538.5q0 -223.5 61.5 -312.5t180.5 -89q117 0 169 87t52 317q0 227 -52 313t-169 86q-119 0 -180.5 -89t-61.5 -312.5zM963 621h405q6 49 6 92q0 223 -194 223q-98 0 -151.5 -75t-65.5 -240z" />
<glyph unicode="&#x178;" horiz-adv-x="1298" d="M39 1460q45 14 127 15q33 0 62.5 -4.5t41.5 -8.5l15 -2l374 -633l385 633q37 14 109 15q31 0 60.5 -4.5t43.5 -8.5l13 -2l-518 -844v-602q-35 -14 -103 -14q-33 0 -59.5 3t-36.5 7l-10 4v598zM393 1573v168q31 12 94 12q27 0 49.5 -3t32.5 -5l11 -4v-168q-33 -12 -93 -12 q-29 0 -52 3t-34 5zM741 1573v168q29 12 95 12q27 0 49 -3t33 -5l10 -4v-168q-33 -12 -92 -12q-29 0 -52.5 3t-33.5 5z" />
<glyph unicode="&#x2c6;" horiz-adv-x="811" d="M96 1241l281 232h53l283 -232q-37 -74 -95 -92l-215 145l-213 -143q-61 20 -94 90z" />
<glyph unicode="&#x2dc;" horiz-adv-x="669" d="M47 1370q6 10 20.5 27.5t62.5 45t103 27.5q63 0 128 -33.5t102 -33.5q29 0 53.5 13.5t34.5 27.5l10 14q61 -27 76 -94q-6 -10 -20.5 -26.5t-62.5 -44t-103 -27.5q-63 0 -128 33.5t-102 33.5q-29 0 -53.5 -14t-34.5 -29l-10 -14q-63 33 -76 94z" />
<glyph unicode="&#x2000;" horiz-adv-x="966" />
<glyph unicode="&#x2001;" horiz-adv-x="1933" />
<glyph unicode="&#x2002;" horiz-adv-x="966" />
<glyph unicode="&#x2003;" horiz-adv-x="1933" />
<glyph unicode="&#x2004;" horiz-adv-x="644" />
<glyph unicode="&#x2005;" horiz-adv-x="483" />
<glyph unicode="&#x2006;" horiz-adv-x="322" />
<glyph unicode="&#x2007;" horiz-adv-x="322" />
<glyph unicode="&#x2008;" horiz-adv-x="241" />
<glyph unicode="&#x2009;" horiz-adv-x="386" />
<glyph unicode="&#x200a;" horiz-adv-x="107" />
<glyph unicode="&#x2010;" horiz-adv-x="733" d="M141 594q0 20 3 39.5t8 28.5l2 8h426q12 -29 12 -76q0 -20 -3 -39.5t-7 -28.5l-2 -8h-426q-12 29 -13 76z" />
<glyph unicode="&#x2011;" horiz-adv-x="733" d="M141 594q0 20 3 39.5t8 28.5l2 8h426q12 -29 12 -76q0 -20 -3 -39.5t-7 -28.5l-2 -8h-426q-12 29 -13 76z" />
<glyph unicode="&#x2012;" horiz-adv-x="733" d="M141 594q0 20 3 39.5t8 28.5l2 8h426q12 -29 12 -76q0 -20 -3 -39.5t-7 -28.5l-2 -8h-426q-12 29 -13 76z" />
<glyph unicode="&#x2013;" horiz-adv-x="1306" d="M141 594q0 20 7 39.5t18 28.5l5 8h967q27 -29 27 -76q0 -20 -7 -39.5t-16 -28.5l-4 -8h-967q-28 29 -30 76z" />
<glyph unicode="&#x2014;" horiz-adv-x="2330" d="M141 594q0 20 13.5 39.5t36.5 28.5l9 8h1935q54 -29 54 -76q0 -20 -13.5 -39.5t-31.5 -28.5l-9 -8h-1935q-54 29 -59 76z" />
<glyph unicode="&#x202f;" horiz-adv-x="386" />
<glyph unicode="&#x205f;" horiz-adv-x="483" />
<glyph unicode="&#x25fc;" horiz-adv-x="1075" d="M0 0v1075h1075v-1075h-1075z" />
<glyph unicode="&#xfb01;" horiz-adv-x="1183" d="M68 1001l10 76h131v123q0 336 387 336q111 0 216.5 -16.5t154.5 -32.5l49 -17q-4 -88 -53 -143q-145 45 -353 45q-104 0 -151 -39t-47 -123v-133h512q27 0 52 -3t38.5 -6t15.5 -3v-1051q-35 -14 -102 -14q-33 0 -58.5 3t-33.5 7l-11 4v910h-413v-910q-35 -14 -101 -14 q-33 0 -58.5 3t-35.5 7l-8 4v910h-131q-10 31 -10 77z" />
<glyph unicode="&#xfb02;" horiz-adv-x="1183" d="M66 1001q0 41 10 76h131v123q0 160 94 248t287 88q104 0 213.5 -17.5t169.5 -35.5l57 -17v-1452q-35 -14 -102 -14q-33 0 -58.5 3t-36.5 7l-8 4v1338q-111 20 -219 20q-102 0 -148 -40t-46 -122v-133h198q10 -37 10 -76q0 -41 -10 -77h-198v-910q-35 -14 -101 -14 q-33 0 -58.5 3t-33.5 7l-10 4v910h-131q-10 55 -10 77z" />
</font>
</defs>
</svg>
