<?xml version="1.0" standalone="no"?>
<!DOCTYPE svg PUBLIC "-//W3C//DTD SVG 1.1//EN" "http://www.w3.org/Graphics/SVG/1.1/DTD/svg11.dtd" >
<svg xmlns="http://www.w3.org/2000/svg">
<metadata></metadata>
<defs>
<font id="mohaveregular" horiz-adv-x="1013" >
<font-face units-per-em="2048" ascent="1845" descent="-203" />
<missing-glyph horiz-adv-x="409" />
<glyph horiz-adv-x="0" />
<glyph unicode="&#xd;" horiz-adv-x="681" />
<glyph unicode=" "  horiz-adv-x="409" />
<glyph unicode="&#x09;" horiz-adv-x="409" />
<glyph unicode="&#xa0;" horiz-adv-x="409" />
<glyph unicode="!" horiz-adv-x="376" d="M100 1673h172l-28 -1339h-115zM111 0v176h153v-176h-153z" />
<glyph unicode="&#x22;" horiz-adv-x="714" d="M127 1440v233h176v-233l-65 -135h-76l65 135h-100zM408 1440v233h176v-233l-66 -135h-76l66 135h-100z" />
<glyph unicode="#" horiz-adv-x="1085" d="M49 592h148q10 72 30.5 187.5t30.5 189.5h-160v135h197l104 569h140l-105 -569h348q10 57 48 263t57 306h141l-104 -569h96v-135h-133l-62 -377h150v-135h-184q-12 -74 -39 -223.5t-41 -233.5h-138l76 457h-348q-10 -55 -35.5 -211t-42.5 -246h-135l74 457h-111zM338 592 h348q10 61 28.5 179t30.5 198q-53 0 -164.5 -1t-183.5 -1z" />
<glyph unicode="$" horiz-adv-x="837" d="M61 467h136v-164q0 -51 45 -101t116 -83v645q-129 27 -213 105.5t-84 179.5v268q0 119 83 213t214 127v108h117v-108q133 -31 215 -125t82 -215v-170h-135v170q0 127 -162 186v-657q125 -31 211 -107.5t86 -173.5v-262q0 -119 -83 -213t-214 -129v-111h-117v111 q-129 35 -212 130t-83 212zM199 1049q0 -100 159 -154v606q-74 -31 -116.5 -80t-42.5 -104v-268zM475 119q66 33 113 84t47 100v262q0 98 -160 156v-602z" />
<glyph unicode="%" horiz-adv-x="1183" d="M61 1036v369q0 86 64.5 146.5t150.5 60.5q84 0 147.5 -60.5t63.5 -146.5v-369q0 -88 -62.5 -147.5t-148.5 -59.5q-88 0 -151.5 59.5t-63.5 147.5zM174 1036q0 -43 28.5 -70.5t73.5 -27.5q39 0 70 28.5t31 69.5v369q0 41 -33 69.5t-68 28.5q-45 0 -73.5 -27.5t-28.5 -70.5 v-369zM221 -51l629 1724h119l-629 -1724h-119zM684 156v370q0 88 61.5 147.5t151.5 59.5q86 0 148.5 -60.5t62.5 -146.5v-370q0 -86 -62.5 -146.5t-148.5 -60.5q-88 0 -150.5 59.5t-62.5 147.5zM795 156q0 -43 28.5 -70t73.5 -27q43 0 71.5 29t28.5 68v370q0 37 -30.5 67 t-69.5 30q-45 0 -73.5 -27t-28.5 -70v-370z" />
<glyph unicode="&#x26;" horiz-adv-x="1083" d="M121 324v266q0 137 121 252q-121 131 -121 248v266q0 150 111.5 253t259.5 103q154 0 260 -121t112 -313h-159q-12 129 -67.5 203.5t-145.5 74.5q-92 0 -152.5 -56t-60.5 -144v-266q8 -74 75.5 -129.5t137.5 -55.5h213v154h159v-154h129v-133h-129v-448 q0 -150 -112.5 -253.5t-260 -103.5t-258 102.5t-112.5 254.5zM279 324q0 -88 60 -144.5t152.5 -56.5t153 56.5t60.5 144.5v448h-213q-92 0 -152.5 -51t-60.5 -131v-266z" />
<glyph unicode="'" horiz-adv-x="436" d="M129 1440v233h176v-233l-65 -135h-76l65 135h-100z" />
<glyph unicode="(" horiz-adv-x="745" d="M125 119v1403q0 160 103 241.5t261 81.5h134v-143q-74 0 -126.5 -6t-105.5 -23.5t-80.5 -55.5t-27.5 -95v-1327q0 -154 67.5 -202t272.5 -50v-144h-134q-156 0 -259 81t-105 239z" />
<glyph unicode=")" horiz-adv-x="745" d="M125 1702v143h133q158 0 261.5 -82t103.5 -241v-1403q0 -158 -103.5 -239t-261.5 -81h-131v144q203 2 270.5 50t67.5 202v1327q0 57 -27.5 95t-81 55.5t-105.5 23.5t-126 6z" />
<glyph unicode="*" horiz-adv-x="604" d="M90 1378l107 68l-107 72q8 10 17.5 21t19.5 23.5t16 20.5l109 -70v158h94l-2 -158q16 10 61.5 38t51.5 32q8 -12 26.5 -31.5t26.5 -31.5l-111 -74q14 -8 53.5 -32.5t57.5 -37.5q-27 -31 -53 -67l-111 67v-153h-94l2 153q-33 -20 -57.5 -34.5t-35.5 -20.5t-18 -10z" />
<glyph unicode="+" horiz-adv-x="835" d="M29 752v116h329v326h117v-326h328v-116h-328v-330h-117v330h-329z" />
<glyph unicode="," horiz-adv-x="333" d="M94 -98v307h156v-186z" />
<glyph unicode="-" horiz-adv-x="831" d="M115 752v116h596v-116h-596z" />
<glyph unicode="." horiz-adv-x="393" d="M113 0v209h155v-209h-155z" />
<glyph unicode="/" horiz-adv-x="856" d="M53 -27l625 1725h121l-629 -1725h-117z" />
<glyph unicode="0" horiz-adv-x="1030" d="M100 381v893q0 168 123 283.5t291 115.5t290 -115.5t122 -283.5v-893q0 -168 -122 -283.5t-290 -115.5t-290 115.5t-124 283.5zM233 289l469 1175q-84 78 -188 78q-113 0 -197 -78t-84 -190v-985zM324 203q71 -90 190 -90q111 0 194 77.5t83 190.5v999z" />
<glyph unicode="1" horiz-adv-x="567" d="M63 1341v115h68q55 0 81 1t70 7t63.5 22.5t19.5 43.5v143h135v-1673h-135v1352q-33 -6 -75 -9.5t-73 -3.5t-82 1t-72 1z" />
<glyph unicode="2" horiz-adv-x="933" d="M109 1065v264q0 143 104 243.5t247.5 100.5t248 -102.5t104.5 -241.5t1 -216t1 -83q0 -94 -23.5 -166.5t-72.5 -128t-88 -86.5t-109 -76q-119 -86 -188.5 -200.5t-44.5 -239.5h557v-133h-701l-2 145q0 186 53.5 299t213.5 207q76 53 112.5 83t80.5 77t61.5 98.5 t17.5 114.5l-4 305q-2 88 -66.5 149.5t-150.5 61.5q-84 0 -150.5 -64.5t-66.5 -146.5v-264h-135z" />
<glyph unicode="3" horiz-adv-x="913" d="M92 334v260h139v-260q0 -92 68 -151.5t156 -59.5q96 0 159.5 59.5t63.5 151.5v266q0 57 -17.5 98t-45 58.5t-61.5 28t-65.5 8.5t-58.5 0h-98v112h96h31.5h41t40 3t42 9.5t36 17.5t33 27.5t18.5 41t8 57.5v266q0 92 -63.5 151.5t-159.5 59.5q-90 0 -157 -60.5t-67 -150.5 v-262h-139v262q0 145 108.5 245.5t254.5 100.5q147 0 253.5 -99t106.5 -247v-266q0 -49 -18.5 -87t-39 -59.5t-71.5 -66.5q129 -100 129 -248v-266q0 -147 -106.5 -246.5t-253.5 -99.5q-145 0 -253 100t-110 246z" />
<glyph unicode="4" horiz-adv-x="929" d="M43 342v117l543 1214h182v-1216h115v-115h-115v-342h-135v342h-590zM170 457h463v1030q-393 -870 -463 -1030z" />
<glyph unicode="5" horiz-adv-x="1011" d="M92 395v113h133v-113q0 -111 84 -192.5t194.5 -81.5t192.5 82t82 192v330q0 111 -82 193.5t-192 82.5q-109 0 -191 -89t-90 -218h-131v979h821v-135h-688v-522q119 119 279 119q170 0 289.5 -120t119.5 -290v-330q0 -170 -119.5 -289.5t-289.5 -119.5q-172 0 -291 118.5 t-121 290.5z" />
<glyph unicode="6" horiz-adv-x="1024" d="M96 381v893q0 168 123 283.5t291 115.5t291 -115.5t123 -283.5v-94h-136v94q0 115 -82.5 191.5t-195.5 76.5t-195 -75.5t-82 -192.5v-273q127 99 277 99q166 0 290 -117t124 -283v-319q0 -168 -123 -283.5t-291 -115.5q-166 0 -289 115.5t-125 283.5zM233 381 q0 -117 82 -192.5t195 -75.5t195.5 76.5t82.5 191.5v319q0 113 -82.5 190t-195.5 77t-195 -76t-82 -191v-319z" />
<glyph unicode="7" horiz-adv-x="841" d="M43 1538v135h752v-176l-455 -1497h-143l448 1538h-602z" />
<glyph unicode="8" horiz-adv-x="1019" d="M94 350v199q0 178 148 299q-148 117 -148 299v133q0 166 123 279.5t291 113.5t290 -112.5t122 -280.5v-133q0 -184 -146 -299q145 -115 146 -299v-199q0 -154 -114 -259t-269 -105h-60q-156 0 -268.5 105.5t-114.5 258.5zM229 350q0 -98 75 -166.5t173 -68.5h60 q98 0 172.5 68.5t74.5 166.5v199q0 104 -81.5 173t-194.5 69t-196 -70t-83 -172v-199zM229 1147q0 -102 83 -172t196 -70t194.5 68.5t81.5 173.5v133q0 111 -83 187.5t-193.5 76.5t-194.5 -76.5t-84 -187.5v-133z" />
<glyph unicode="9" horiz-adv-x="1021" d="M94 381v94h135v-94q0 -115 83 -191.5t196 -76.5t194.5 75.5t81.5 192.5v272q-126 -98 -276 -98q-166 0 -290 116.5t-124 282.5v320q0 168 123 283.5t291 115.5t291 -115.5t123 -283.5v-893q0 -168 -123 -283.5t-291 -115.5q-166 0 -289 115.5t-125 283.5zM229 954 q0 -113 83 -189.5t196 -76.5t194.5 76t81.5 190v320q0 117 -81.5 192.5t-194.5 75.5t-196 -76.5t-83 -191.5v-320z" />
<glyph unicode=":" horiz-adv-x="346" d="M94 0v209h156v-209h-156zM94 635v209h156v-209h-156z" />
<glyph unicode=";" horiz-adv-x="346" d="M94 -119v328h156v-186zM94 635v209h156v-209h-156z" />
<glyph unicode="&#x3c;" horiz-adv-x="876" d="M49 729v166l774 291v-144l-614 -231q469 -174 614 -229v-144z" />
<glyph unicode="=" horiz-adv-x="800" d="M86 555v137h631v-137h-631zM86 926v137h631v-137h-631z" />
<glyph unicode="&#x3e;" horiz-adv-x="876" d="M49 582q145 55 615 229l-615 231v144l774 -291v-166l-772 -291z" />
<glyph unicode="?" horiz-adv-x="792" d="M39 1149v168q0 147 104.5 251.5t251.5 104.5q129 0 221.5 -104.5t92.5 -251.5v-207q0 -90 -39 -166t-95.5 -130t-112.5 -106.5t-95 -120t-39 -147.5v-104h-117v104q0 92 59.5 191.5t131 169t132 149.5t60.5 142l-2 225q0 88 -59.5 154.5t-137.5 66.5q-94 0 -157.5 -63.5 t-63.5 -157.5v-168h-135zM188 0v176h156v-176h-156z" />
<glyph unicode="@" horiz-adv-x="1368" d="M18 868q0 279 195 473.5t471 194.5h256q172 0 292 -120t120 -292v-442q0 -172 -93.5 -302t-263.5 -130q-63 0 -102 10q-121 -88 -236 -88q-135 0 -226 91t-91 226q0 45 4 92.5t11 103.5t10 91q16 137 118.5 235.5t239.5 98.5h180q63 0 106.5 -44t47.5 -108l-49 -579 q104 18 159.5 106t55.5 197v442q0 113 -85 198t-198 85h-256q-217 0 -377 -161t-160 -378v-405q0 -217 160 -376t377 -159h158q117 0 307 176v-204q-160 -100 -307 -101h-158q-276 0 -470 192.5t-194 471.5zM469 489q0 -80 56.5 -134t131.5 -54q96 0 158 65.5t76 161.5 l39 457l-207 -4q-86 0 -154.5 -65.5t-74.5 -149.5z" />
<glyph unicode="A" horiz-adv-x="952" d="M41 0l336 1673h182l350 -1673h-141l-96 455h-400l-92 -455h-139zM291 571h362l-184 869q-10 -48 -178 -869z" />
<glyph unicode="B" horiz-adv-x="974" d="M92 1673h400q147 0 251.5 -109.5t104.5 -265.5v-211q0 -145 -146 -256q96 -57 150.5 -144t54.5 -183v-98q0 -170 -113.5 -288t-273.5 -118h-426zM227 135h293q102 0 176 61.5t74 147.5v160q0 102 -74 176t-176 74h-293v-619zM227 868h265q88 0 153.5 65.5t65.5 153.5v273 q0 72 -65.5 125t-153.5 53h-265v-670z" />
<glyph unicode="C" horiz-adv-x="983" d="M102 342v975q0 145 125 250.5t293 105.5q156 0 266.5 -104.5t110.5 -251.5v-111h-137v111q0 88 -73 154.5t-167 66.5q-111 0 -195.5 -66.5t-84.5 -154.5v-975q0 -88 85 -154.5t195 -66.5q94 0 167 66.5t73 154.5v119h137v-119q0 -147 -110.5 -251.5t-266.5 -104.5 q-168 0 -292 104.5t-126 251.5z" />
<glyph unicode="D" horiz-adv-x="897" d="M94 1673h357q143 0 249.5 -97t106.5 -241v-997q0 -143 -106.5 -240.5t-249.5 -97.5h-355zM229 131h222q88 0 153.5 59.5t65.5 147.5v997q0 88 -65.5 147.5t-153.5 59.5h-222v-1411z" />
<glyph unicode="E" horiz-adv-x="796" d="M94 1673h643v-135h-508v-668h453v-114h-453v-621h508v-135h-641z" />
<glyph unicode="F" horiz-adv-x="751" d="M96 1673h643v-135h-508v-668h453v-114h-453v-756h-133z" />
<glyph unicode="G" horiz-adv-x="1001" d="M102 324v997q0 145 125 248.5t293 103.5q154 0 265.5 -103.5t111.5 -248.5v-242h-135v242q0 86 -73 151.5t-169 65.5q-111 0 -195.5 -65.5t-84.5 -151.5v-997q0 -88 85 -147.5t195 -59.5q96 0 169 59.5t73 147.5v438h-209v112h344v-550q0 -141 -112.5 -239.5 t-264.5 -98.5q-166 0 -291 98t-127 240z" />
<glyph unicode="H" horiz-adv-x="921" d="M96 1673h137v-803h449v803h137v-1673h-137v756h-449v-756h-135z" />
<glyph unicode="I" horiz-adv-x="405" d="M125 1673h143v-1673h-141z" />
<glyph unicode="J" horiz-adv-x="595" d="M14 0v123h15q170 0 249 43q82 45 82 147v1360h136v-1360q0 -154 -99.5 -233.5t-253.5 -79.5h-129z" />
<glyph unicode="K" horiz-adv-x="1028" d="M100 1673h136v-747q444 596 559 747h166l-482 -649l441 -1024h-132l-407 920l-145 -183v-737h-134z" />
<glyph unicode="L" horiz-adv-x="698" d="M100 1673h136v-1538h411v-135h-545z" />
<glyph unicode="M" horiz-adv-x="1241" d="M100 1673h152l377 -1468l379 1468h127v-1673h-138v1114l-280 -1114h-176l-305 1122v-1122h-134z" />
<glyph unicode="N" horiz-adv-x="980" d="M102 1673h152l483 -1290v1290h135v-1673h-120l-514 1343v-1343h-134z" />
<glyph unicode="O" d="M92 326v1009q0 141 124 239.5t288 98.5q168 0 289.5 -98.5t121.5 -239.5v-1009q0 -141 -121.5 -239.5t-289.5 -98.5q-164 0 -287 98t-125 240zM227 326q0 -88 83 -147.5t194 -59.5q113 0 194.5 59.5t81.5 147.5v1009q0 88 -82 147.5t-194 59.5q-111 0 -194 -59.5 t-83 -147.5v-1009z" />
<glyph unicode="P" horiz-adv-x="841" d="M104 1673h357q145 0 250.5 -104.5t105.5 -251.5v-250q0 -147 -104.5 -250.5t-251.5 -103.5h-219v-713h-136zM242 848h219q88 0 153.5 65.5t65.5 153.5v250q0 88 -65.5 154.5t-153.5 66.5h-219v-690z" />
<glyph unicode="Q" horiz-adv-x="995" d="M80 324v1009q0 143 122 240.5t290 97.5q170 0 290.5 -97t120.5 -241v-1009q0 -98 -60.5 -175t-176.5 -120l49 -217h-117l-45 176h-61q-168 0 -289 96t-123 240zM215 324q0 -88 81 -147.5t232 -59.5l-61 264h108l62 -236q131 66 131 179v1009q0 86 -84 146.5t-192.5 60.5 t-192.5 -59.5t-84 -147.5v-1009z" />
<glyph unicode="R" horiz-adv-x="929" d="M104 1673h357q147 0 252.5 -104.5t105.5 -251.5v-250q0 -139 -147 -250q76 -51 119 -122.5t43 -147.5v-547h-138v547q0 82 -67.5 144.5t-157.5 62.5h-229v-754h-136zM242 868h227q88 0 149.5 59.5t61.5 139.5v250q0 94 -46 157.5t-112 63.5h-280v-670z" />
<glyph unicode="S" horiz-adv-x="923" d="M84 348v162h135v-162q0 -88 73 -154.5t169 -66.5q100 0 168.5 65.5t68.5 155.5v240q0 72 -71.5 119t-169.5 47q-152 0 -262.5 91t-110.5 226v246q0 147 110.5 251.5t266 104.5t265.5 -104.5t110 -251.5v-168h-136v168q0 92 -71.5 156.5t-167.5 64.5q-100 0 -170 -65.5 t-70 -155.5v-246q0 -80 72 -131t172 -55q150 -12 260.5 -93t110.5 -204v-240q0 -147 -111 -251.5t-264 -104.5q-156 0 -265.5 104.5t-111.5 251.5z" />
<glyph unicode="T" horiz-adv-x="882" d="M76 1538v135h725v-135h-291v-1538h-135v1538h-299z" />
<glyph unicode="U" horiz-adv-x="956" d="M102 340v1333h136v-1333q0 -86 70.5 -150.5t164.5 -64.5t166 64.5t72 150.5v1333h137v-1333q0 -143 -110.5 -246.5t-264.5 -103.5q-152 0 -260.5 102.5t-110.5 247.5z" />
<glyph unicode="V" horiz-adv-x="972" d="M51 1673h139l297 -1503l291 1503h140l-302 -1673h-258z" />
<glyph unicode="W" horiz-adv-x="1378" d="M74 1673h139l195 -1233l215 1233h129l215 -1233l194 1233h139l-247 -1673h-150l-217 1235l-215 -1235h-149z" />
<glyph unicode="X" horiz-adv-x="1142" d="M90 0l393 811q-72 154 -214 467t-179 395h154l325 -731q57 131 170 382t156 349h154q-302 -674 -392 -860l394 -813h-152l-330 688q-59 -139 -172.5 -365.5t-156.5 -322.5h-150z" />
<glyph unicode="Y" horiz-adv-x="1036" d="M37 1673h153l326 -680q51 109 163 340.5t163 339.5h153l-413 -866v-807h-136v807q-59 125 -200.5 425t-208.5 441z" />
<glyph unicode="Z" horiz-adv-x="1019" d="M82 1538v135h829v-157l-635 -1381h656v-135h-807l-2 158l631 1380h-672z" />
<glyph unicode="[" horiz-adv-x="608" d="M84 1845h436v-137h-299v-1774h299v-137h-434z" />
<glyph unicode="\" horiz-adv-x="856" d="M51 1698h121l627 -1725h-119z" />
<glyph unicode="]" horiz-adv-x="608" d="M84 1708v137h436v-2048h-434v137h297v1774h-299z" />
<glyph unicode="^" horiz-adv-x="888" d="M47 1280l332 401h135l322 -401h-160l-230 270l-243 -270h-156z" />
<glyph unicode="_" horiz-adv-x="1181" d="M115 -20h946v-82h-946v82z" />
<glyph unicode="`" horiz-adv-x="491" d="M55 1673h201l129 -291h-139z" />
<glyph unicode="a" horiz-adv-x="970" d="M51 0l336 1673h182l351 -1673h-142l-76 291h-440l-72 -291h-139zM281 408h403l-205 1032q-34 -172 -198 -1032z" />
<glyph unicode="b" horiz-adv-x="1015" d="M92 1673h400q147 0 251.5 -109.5t104.5 -265.5v-211q0 -145 -146 -256q96 -57 150.5 -144t54.5 -183v-98q0 -170 -113.5 -288t-273.5 -118h-426zM227 135h293q102 0 176 61.5t74 147.5v160q0 102 -74 176t-176 74h-293v-619zM227 868h265q88 0 153.5 65.5t65.5 153.5v273 q0 72 -65.5 125t-153.5 53h-265v-670z" />
<glyph unicode="c" horiz-adv-x="983" d="M102 342v975q0 145 125 250.5t293 105.5q156 0 266.5 -104.5t110.5 -251.5v-111h-137v111q0 88 -73 154.5t-167 66.5q-111 0 -195.5 -66.5t-84.5 -154.5v-975q0 -88 85 -154.5t195 -66.5q94 0 167 66.5t73 154.5v119h137v-119q0 -147 -110.5 -251.5t-266.5 -104.5 q-168 0 -292 104.5t-126 251.5z" />
<glyph unicode="d" horiz-adv-x="897" d="M94 1673h357q143 0 249.5 -97t106.5 -241v-997q0 -143 -106.5 -240.5t-249.5 -97.5h-355zM229 131h222q88 0 153.5 59.5t65.5 147.5v997q0 88 -65.5 147.5t-153.5 59.5h-222v-1411z" />
<glyph unicode="e" horiz-adv-x="827" d="M115 1673h643v-135h-508v-504h452v-114h-452v-785h508v-135h-641z" />
<glyph unicode="f" horiz-adv-x="772" d="M115 1673h643v-135h-508v-831h452v-115h-452v-592h-133z" />
<glyph unicode="g" horiz-adv-x="1001" d="M102 324v997q0 145 125 248.5t293 103.5q154 0 265.5 -103.5t111.5 -248.5v-242h-135v242q0 86 -73 151.5t-169 65.5q-111 0 -195.5 -65.5t-84.5 -151.5v-997q0 -88 85 -147.5t195 -59.5q96 0 169 59.5t73 147.5v274h-209v113h344v-387q0 -141 -112.5 -239.5 t-264.5 -98.5q-166 0 -291 98t-127 240z" />
<glyph unicode="h" horiz-adv-x="921" d="M96 1673h137v-803h449v803h137v-1673h-137v756h-449v-756h-135z" />
<glyph unicode="i" horiz-adv-x="405" d="M125 1673h143v-1673h-141z" />
<glyph unicode="j" horiz-adv-x="595" d="M14 0v123h15q170 0 249 43q82 45 82 147v1360h136v-1360q0 -154 -99.5 -233.5t-253.5 -79.5h-129z" />
<glyph unicode="k" horiz-adv-x="1028" d="M100 1673h136v-747q444 596 559 747h166l-482 -649l441 -1024h-132l-407 920l-145 -183v-737h-134z" />
<glyph unicode="l" horiz-adv-x="698" d="M100 1673h136v-1538h411v-135h-545z" />
<glyph unicode="m" horiz-adv-x="1241" d="M100 1673h152l377 -1468l379 1468h127v-1673h-138v1094l-280 -1094h-176l-305 1102v-1102h-134z" />
<glyph unicode="n" horiz-adv-x="980" d="M102 1673h152l483 -1290v1290h135v-1673h-120l-514 1323v-1323h-134z" />
<glyph unicode="o" d="M92 326v1009q0 141 124 239.5t288 98.5q168 0 289.5 -98.5t121.5 -239.5v-1009q0 -141 -121.5 -239.5t-289.5 -98.5q-164 0 -287 98t-125 240zM227 326q0 -88 83 -147.5t194 -59.5q113 0 194.5 59.5t81.5 147.5v1009q0 88 -82 147.5t-194 59.5q-111 0 -194 -59.5 t-83 -147.5v-1009z" />
<glyph unicode="p" horiz-adv-x="866" d="M115 1673h356q145 0 250.5 -104.5t105.5 -251.5v-414q0 -147 -104.5 -250.5t-251.5 -103.5h-219v-549h-135zM252 684h219q88 0 153.5 65.5t65.5 153.5v414q0 88 -65.5 154.5t-153.5 66.5h-219v-854z" />
<glyph unicode="q" horiz-adv-x="995" d="M80 324v1009q0 143 122 240.5t290 97.5q170 0 290.5 -97t120.5 -241v-1009q0 -98 -60.5 -175t-176.5 -120l49 -217h-117l-45 176h-61q-168 0 -289 96t-123 240zM215 324q0 -88 81 -147.5t232 -59.5l-61 264h108l62 -236q131 66 131 179v1009q0 86 -84 146.5t-192.5 60.5 t-192.5 -59.5t-84 -147.5v-1009z" />
<glyph unicode="r" horiz-adv-x="950" d="M115 1673h356q147 0 252.5 -104.5t105.5 -251.5v-414q0 -139 -147 -250q162 -111 162 -270v-383h-137v383q0 82 -68 144.5t-158 62.5h-229v-590h-135zM252 705h227q88 0 149.5 59t61.5 139v414q0 94 -62.5 157.5t-156.5 63.5h-219v-833z" />
<glyph unicode="s" horiz-adv-x="923" d="M84 348v162h135v-162q0 -88 73 -154.5t169 -66.5q100 0 168.5 65.5t68.5 155.5v240q0 72 -71.5 119t-169.5 47q-152 0 -262.5 91t-110.5 226v246q0 147 110.5 251.5t266 104.5t265.5 -104.5t110 -251.5v-168h-136v168q0 92 -71.5 156.5t-167.5 64.5q-100 0 -170 -65.5 t-70 -155.5v-246q0 -80 72 -131t172 -55q150 -12 260.5 -93t110.5 -204v-240q0 -147 -111 -251.5t-264 -104.5q-156 0 -265.5 104.5t-111.5 251.5z" />
<glyph unicode="t" horiz-adv-x="882" d="M76 1538v135h725v-135h-291v-1538h-135v1538h-299z" />
<glyph unicode="u" horiz-adv-x="956" d="M102 340v1333h136v-1333q0 -86 70.5 -150.5t164.5 -64.5t166 64.5t72 150.5v1333h137v-1333q0 -143 -110.5 -246.5t-264.5 -103.5q-152 0 -260.5 102.5t-110.5 247.5z" />
<glyph unicode="v" horiz-adv-x="972" d="M51 1673h139l297 -1503l291 1503h140l-302 -1673h-258z" />
<glyph unicode="w" horiz-adv-x="1378" d="M74 1673h139l195 -1233l215 1233h129l215 -1233l194 1233h139l-247 -1673h-150l-217 1235l-215 -1235h-149z" />
<glyph unicode="x" horiz-adv-x="1142" d="M90 0l393 811q-72 154 -214 467t-179 395h154l325 -751q57 135 170 394t156 357h154q-302 -674 -392 -860l394 -813h-152l-330 709q-59 -143 -172.5 -378t-156.5 -331h-150z" />
<glyph unicode="y" horiz-adv-x="1036" d="M37 1673h153l326 -680q51 109 163 340.5t163 339.5h153l-413 -866v-807h-136v807q-59 125 -200.5 425t-208.5 441z" />
<glyph unicode="z" horiz-adv-x="1019" d="M82 1538v135h829v-157l-635 -1381h656v-135h-807l-2 158l631 1380h-672z" />
<glyph unicode="{" horiz-adv-x="634" d="M49 776v144q78 0 112 19t34 69v475q0 72 1 108.5t13 94t37.5 87t76 52t123.5 22.5h134v-123h-70q-53 0 -77.5 -1t-54.5 -9t-41 -26.5t-11 -49.5q0 -156 2 -362.5t2 -284.5q0 -100 -90 -143q55 -27 72.5 -58.5t17.5 -84.5v-703q0 -25 8 -41t16 -25.5t37 -13.5t46.5 -4 h64.5h78v-115q-80 -6 -134 -6q-121 0 -186 63.5t-65 182.5v645q0 49 -34 68.5t-112 19.5z" />
<glyph unicode="|" horiz-adv-x="346" d="M104 1823h115v-2007h-113z" />
<glyph unicode="}" horiz-adv-x="634" d="M49 1724v123h133q74 0 124 -22.5t76 -52t38 -87t13 -94.5t1 -108v-475q0 -49 34 -68.5t112 -19.5v-144q-78 0 -112 -19.5t-34 -68.5v-645q0 -119 -65.5 -182.5t-186.5 -63.5q-51 0 -131 6v115h78h64.5t45 4t36 13.5t16.5 25.5t8 41v682q0 61 13.5 98t56.5 66 q-70 49 -70 164q0 125 2 329.5t2 296.5q0 31 -11 49.5t-41 26.5t-54.5 9t-77.5 1h-70z" />
<glyph unicode="~" horiz-adv-x="825" d="M14 791q78 78 137.5 115.5t133.5 37.5q47 0 129 -37t125 -37t135 93l92 -93q-82 -82 -138 -119.5t-130 -37.5q-51 2 -136.5 37.5t-117.5 35.5q-43 0 -142 -94z" />
<glyph unicode="&#xa1;" horiz-adv-x="376" d="M102 -410l27 1340h115l28 -1340h-170zM109 1087v177h155v-177h-155z" />
<glyph unicode="&#xa2;" horiz-adv-x="749" d="M53 614v387q0 139 98.5 237.5t237.5 98.5q70 0 121 -12q2 4 4 11t8 27.5t19 51.5h127l-58 -162q43 -33 67.5 -67.5t35 -86.5t11.5 -82t1 -106h-117v47q0 123 -39 189l-282 -729q43 -25 102 -25q88 0 153.5 66.5t65.5 154.5v99h117v-99q0 -139 -98.5 -237t-237.5 -98 q-70 0 -131 16q-6 -14 -18.5 -52t-26.5 -75h-125l78 217q-113 106 -113 229zM170 1001q0 -330 5 -392t38 -70l260 675q-43 8 -84 9q-86 0 -152.5 -66.5t-66.5 -155.5z" />
<glyph unicode="&#xa3;" horiz-adv-x="831" d="M16 788v117h90v402q0 147 105.5 251.5t251.5 104.5q147 0 251.5 -104.5t104.5 -251.5v-111h-137v111q0 88 -65.5 154.5t-153.5 66.5q-86 0 -152.5 -67.5t-66.5 -153.5v-402h401v-117h-401v-620q90 14 196.5 -26t139.5 -40q61 0 163 64l78 -76q-78 -72 -122 -95.5 t-119 -23.5q-51 0 -139.5 37t-135.5 37t-141 -94l-105 115q43 41 50 51l-3 671h-90z" />
<glyph unicode="&#xa4;" horiz-adv-x="829" d="M4 418l146 241q-61 92 -58 199q-4 109 58 199q-2 4 -10.5 16t-43.5 71.5t-90 153.5h129l96 -149q92 43 181 43q96 0 178 -47l98 153h135l-149 -243q57 -86 61 -197q-4 -113 -61 -199q133 -215 149 -241h-131l-98 147q-82 -41 -182.5 -41t-180.5 41l-98 -147h-129z M217 858q-2 -84 55.5 -150.5t139.5 -66.5t139 66.5t59 150.5q-2 84 -59 150.5t-139 66.5t-139.5 -67.5t-55.5 -149.5z" />
<glyph unicode="&#xa5;" horiz-adv-x="1036" d="M37 1673h153l326 -721q49 111 160.5 356.5t165.5 364.5h153l-325 -737h161v-137h-245v-172h245v-138h-245v-489h-140v489h-245v138h245v172h-245v137h159z" />
<glyph unicode="&#xa6;" horiz-adv-x="395" d="M137 606h115v-790h-113zM137 1032v791h115v-791h-115z" />
<glyph unicode="&#xa7;" horiz-adv-x="755" d="M53 760q-6 180 88 268q-86 80 -86 186v207q0 123 99.5 204t224.5 81t224 -80t99 -205v-143h-124v143q0 74 -60.5 122t-138.5 48q-76 0 -137.5 -48t-61.5 -122v-207q0 -45 60.5 -70.5t138.5 -25.5q119 0 221 -78.5t102 -197.5v-105q0 -117 -94 -198q94 -74 94 -187v-202 q0 -121 -100 -201t-223 -80t-222.5 80t-99.5 201v137h123v-137q0 -72 61.5 -119t137.5 -47t136 47t60 119v202q0 45 -61 72t-139 27q-145 0 -233.5 82.5t-88.5 226.5zM180 723q0 -66 65.5 -112t133.5 -46q76 0 136 48.5t60 123.5v105q0 70 -63 117t-135 47 q-78 0 -137.5 -49.5t-59.5 -125.5v-108z" />
<glyph unicode="&#xa8;" horiz-adv-x="624" d="M137 1509v162h115v-162h-115zM369 1509v162h114v-162h-114z" />
<glyph unicode="&#xa9;" horiz-adv-x="1773" d="M59 807q-2 342 241 584.5t585 242.5t584.5 -242.5t244.5 -584.5q-2 -342 -244.5 -584.5t-584.5 -242.5t-584 242.5t-242 584.5zM139 807q-2 -309 216 -528.5t530 -219.5q309 0 528 218.5t221 529.5q-2 311 -221 529t-528 218q-311 0 -529.5 -219t-216.5 -528zM514 621 q0 -137 112.5 -236.5t264.5 -99.5q137 0 236.5 99t99.5 237v98h-117v-98q0 -90 -63.5 -156t-155.5 -66q-104 0 -182 66.5t-78 155.5v360q0 88 77.5 154.5t182.5 66.5q92 0 155.5 -65.5t63.5 -155.5v-90h117v90q0 137 -99.5 236.5t-236.5 99.5q-152 0 -264.5 -99.5 t-112.5 -236.5v-360z" />
<glyph unicode="&#xab;" horiz-adv-x="989" d="M78 672v133l426 467v-185l-309 -350q299 -338 309 -348v-184zM481 672v133l426 467v-185l-309 -350q299 -338 309 -348v-184z" />
<glyph unicode="&#xac;" horiz-adv-x="964" d="M92 772v137h774v-370h-137v233h-637z" />
<glyph unicode="&#xad;" horiz-adv-x="831" d="M115 752v116h596v-116h-596z" />
<glyph unicode="&#xae;" horiz-adv-x="1773" d="M59 807q-2 342 241 584.5t585 242.5t584.5 -242.5t244.5 -584.5q-2 -342 -244.5 -584.5t-584.5 -242.5t-584 242.5t-242 584.5zM139 807q-2 -309 216 -528.5t530 -219.5q309 0 528 218.5t221 529.5q-2 311 -221 529t-528 218q-311 0 -529.5 -219t-216.5 -528zM592 260 h137v371h137q86 0 150.5 -58.5t64.5 -138.5v-174h138v174q0 160 -146 271q131 115 131 249v52q0 143 -102.5 244.5t-245.5 101.5h-264v-1092zM729 745v472h127q88 0 148.5 -60.5t60.5 -150.5v-52q0 -84 -58.5 -146.5t-142.5 -62.5h-135z" />
<glyph unicode="&#xb0;" horiz-adv-x="591" d="M80 1458q0 92 61.5 153.5t151.5 61.5q88 0 151.5 -62.5t63.5 -152.5t-62.5 -151.5t-152.5 -61.5q-92 0 -152.5 60.5t-60.5 152.5zM172 1458q0 -47 37 -84t84 -37q49 0 86 37t37 84q0 49 -37 86t-86 37q-47 0 -84 -37t-37 -86z" />
<glyph unicode="&#xb1;" horiz-adv-x="907" d="M63 752v116h330v326h117v-326h328v-116h-328v-330h-117v330h-330zM68 0v117h768v-117h-768z" />
<glyph unicode="&#xb2;" horiz-adv-x="901" d="M207 610v64q0 117 34.5 192.5t129.5 139.5q63 39 96 64.5t61.5 65.5t28.5 85l-2 206q-2 43 -35 76t-74 33q-43 0 -77.5 -34t-34.5 -75v-174h-113v174q0 92 66.5 156t158.5 64q88 0 155 -65.5t67 -154.5v-202q0 -76 -30 -134.5t-60.5 -85t-85.5 -61.5q-152 -98 -150 -223 h344v-111h-479z" />
<glyph unicode="&#xb3;" horiz-adv-x="878" d="M197 831v168h112v-168q2 -47 37 -77.5t80 -30.5t79 30.5t34 77.5v154q-4 31 -18.5 49.5t-42 25.5t-47 9t-54.5 2h-78v111h109q131 4 131 90v153q0 43 -34 76t-79 33t-81 -33t-36 -76v-172h-112v172q0 94 68.5 158t160.5 64t158.5 -63.5t66.5 -158.5v-153q0 -86 -53 -146 q53 -53 53 -141v-154q0 -94 -66.5 -157.5t-158.5 -63.5t-160.5 63.5t-68.5 157.5z" />
<glyph unicode="&#xb4;" horiz-adv-x="491" d="M76 1382l129 291h201l-191 -291h-139z" />
<glyph unicode="&#xb6;" horiz-adv-x="1138" d="M72 1163q0 127 87 213t212 86h692v-135h-145v-1622h-136v1622h-327v-1622h-136v1161q-109 14 -178 99.5t-69 197.5z" />
<glyph unicode="&#xb7;" horiz-adv-x="393" d="M113 694v209h155v-209h-155z" />
<glyph unicode="&#xb8;" horiz-adv-x="299" d="M20 -244l35 64q45 -23 78 -23q74 0 74 60q0 39 -46 49t-87 4v125h67v-66q57 6 97.5 -22.5t40.5 -93.5q0 -61 -41 -92t-103 -31q-51 0 -115 26z" />
<glyph unicode="&#xb9;" horiz-adv-x="542" d="M76 1413v113h57q121 0 121 22v101h111v-1037h-111v803q-20 -2 -129 -2h-49z" />
<glyph unicode="&#xbb;" horiz-adv-x="989" d="M78 389q10 10 309 348l-309 350v185l426 -467v-133l-424 -467zM481 205v184q10 10 310 348l-310 350v185l426 -467v-133z" />
<glyph unicode="&#xbc;" horiz-adv-x="1353" d="M96 1413v113h56q123 0 122 22v101h111v-1037h-111v803q-23 -2 -129 -2h-49zM98 -27h101l1052 1725h-104zM664 205v114l323 717h135v-721h68v-110h-68v-205h-110v205h-348zM786 315h226l2 521q-184 -406 -228 -521z" />
<glyph unicode="&#xbd;" horiz-adv-x="1392" d="M100 1413v113h58q121 0 121 22v101h110v-1037h-110v803q-20 -2 -129 -2h-50zM102 -27l1049 1725h104l-1052 -1725h-101zM856 0v63q0 119 35 194t129 138q63 39 96 64.5t61.5 65.5t28.5 85l-2 207q-2 43 -34.5 76t-73.5 33q-43 0 -78 -34t-35 -75v-174h-113v174 q0 92 67 155.5t159 63.5q88 0 154.5 -65.5t66.5 -153.5v-203q0 -76 -30 -134t-60.5 -84.5t-85.5 -61.5q-152 -98 -150 -223h344v-111h-479z" />
<glyph unicode="&#xbe;" horiz-adv-x="1411" d="M59 858v168h113v-168q2 -47 37 -77.5t80 -30.5t78.5 30.5t33.5 77.5v154q-4 31 -18 49t-42 25.5t-47 9.5t-54 2h-78v110h108q131 4 131 90v154q0 43 -33.5 76t-78.5 33t-81 -33t-36 -76v-172h-113v172q0 94 69 157.5t161 63.5t158.5 -63.5t66.5 -157.5v-154 q0 -86 -53 -145q53 -53 53 -141v-154q0 -94 -66.5 -157.5t-158.5 -63.5t-161 63.5t-69 157.5zM150 -27l1048 1725h105l-1053 -1725h-100zM715 205v114l323 717h136v-721h67v-110h-67v-205h-111v205h-348zM838 315h225l2 521q-184 -406 -227 -521z" />
<glyph unicode="&#xbf;" horiz-adv-x="792" d="M78 154q0 90 39 165.5t95 130t112.5 106.5t95.5 119.5t39 147.5v105h116v-105q0 -92 -59 -191.5t-131 -169t-132 -149.5t-60 -141l2 -225q0 -88 59 -154.5t137 -66.5q94 0 157.5 63.5t63.5 157.5v168h136v-168q0 -147 -104.5 -252t-252.5 -105q-129 0 -220 105t-91 252z M442 1087v177h156v-177h-156z" />
<glyph unicode="&#xc0;" horiz-adv-x="952" d="M41 0l336 1673h182l350 -1673h-141l-96 455h-400l-92 -455h-139zM209 2052h201l129 -291h-140zM291 571h362l-184 869q-10 -48 -178 -869z" />
<glyph unicode="&#xc1;" horiz-adv-x="952" d="M41 0l336 1673h182l350 -1673h-141l-96 455h-400l-92 -455h-139zM291 571h362l-184 869q-10 -48 -178 -869zM397 1763l129 291h201l-190 -291h-140z" />
<glyph unicode="&#xc2;" horiz-adv-x="952" d="M41 0h139l92 455h400l96 -455h141l-350 1673h-182zM252 1761l172 203h108l162 -203h-102l-115 127l-117 -127h-108zM291 571q168 821 178 869l184 -869h-362z" />
<glyph unicode="&#xc3;" horiz-adv-x="952" d="M41 0l336 1673h182l350 -1673h-141l-96 455h-400l-92 -455h-139zM217 1841q31 35 44 49.5t43 33t58 18.5q35 0 105 -26t123 -26q45 0 86 62l51 -66q-64 -88 -162 -88q-27 0 -102.5 25.5t-97.5 25.5q-18 0 -36 -8t-27 -15t-22.5 -23.5t-17.5 -20.5zM291 571h362l-184 869 q-10 -48 -178 -869z" />
<glyph unicode="&#xc4;" horiz-adv-x="952" d="M41 0l336 1673h182l350 -1673h-141l-96 455h-400l-92 -455h-139zM291 571h362l-184 869q-10 -48 -178 -869zM301 1782v162h115v-162h-115zM532 1782v162h115v-162h-115z" />
<glyph unicode="&#xc5;" horiz-adv-x="952" d="M41 0l336 1673h182l350 -1673h-141l-96 455h-400l-90 -455h-141zM291 571h362l-184 869q-10 -48 -178 -869zM317 1915q0 66 45.5 111t110.5 45q63 0 109.5 -46.5t46.5 -109.5q0 -66 -45 -111t-111 -45q-68 0 -112 44t-44 112zM383 1915q0 -37 26.5 -63.5t63.5 -26.5 t63.5 26.5t26.5 63.5t-26.5 63.5t-63.5 26.5t-63.5 -26.5t-26.5 -63.5z" />
<glyph unicode="&#xc6;" horiz-adv-x="1466" d="M37 0l690 1673h647v-135h-526q0 -274 1 -458.5t1 -209.5h469v-114h-469q0 -125 -2 -308.5t-2 -312.5h528v-135h-667v414h-338l-189 -414h-143zM428 551h281v686z" />
<glyph unicode="&#xc7;" horiz-adv-x="983" d="M102 342v975q0 145 125 250.5t293 105.5q156 0 266.5 -104.5t110.5 -251.5v-111h-137v111q0 88 -73 154.5t-167 66.5q-111 0 -195.5 -66.5t-84.5 -154.5v-975q0 -88 85 -154.5t195 -66.5q94 0 167 66.5t73 154.5v119h137v-119q0 -139 -99.5 -241.5t-244.5 -112.5v-19 q57 6 97 -22.5t40 -93.5q0 -61 -41 -92t-102 -31q-51 0 -115 26l27 64q45 -23 86 -23q29 0 51 16.5t22 39.5q0 45 -41.5 50t-91.5 -9v94q-160 10 -271.5 114.5t-111.5 239.5z" />
<glyph unicode="&#xc8;" horiz-adv-x="796" d="M94 1673h643v-135h-508v-668h453v-114h-453v-621h508v-135h-641zM195 2052h200l129 -291h-139z" />
<glyph unicode="&#xc9;" horiz-adv-x="796" d="M94 1673h643v-135h-508v-668h453v-114h-453v-621h508v-135h-641zM340 1761l129 291h201l-191 -291h-139z" />
<glyph unicode="&#xca;" horiz-adv-x="796" d="M94 1673l2 -1673h641v135h-508v621h453v114h-453v668h508v135h-643zM174 1761l172 203h109l161 -203h-102l-115 127l-116 -127h-109z" />
<glyph unicode="&#xcb;" horiz-adv-x="796" d="M94 1673h643v-135h-508v-668h453v-114h-453v-621h508v-135h-641zM242 1782v162h114v-162h-114zM473 1782v162h115v-162h-115z" />
<glyph unicode="&#xcc;" horiz-adv-x="405" d="M-74 2052h199l129 -291h-139zM125 1673h143v-1673h-141z" />
<glyph unicode="&#xcd;" horiz-adv-x="405" d="M121 1761l129 291h201l-191 -291h-139zM125 1673h143v-1673h-141z" />
<glyph unicode="&#xce;" horiz-adv-x="405" d="M-18 1763l170 203h108l162 -203h-103l-114 127l-117 -127h-106zM125 1673l2 -1673h141v1673h-143z" />
<glyph unicode="&#xcf;" horiz-adv-x="405" d="M29 1784v162h114v-162h-114zM125 1673h143v-1673h-141zM260 1784v162h115v-162h-115z" />
<glyph unicode="&#xd0;" horiz-adv-x="985" d="M51 752v116h131v805h357q143 0 249.5 -97t106.5 -241v-997q0 -143 -106.5 -240.5t-249.5 -97.5h-357v752h-131zM317 131h222q88 0 153.5 59.5t65.5 147.5v997q0 88 -65.5 147.5t-153.5 59.5h-222v-674h271v-116h-271v-621z" />
<glyph unicode="&#xd1;" horiz-adv-x="980" d="M102 1673h152l483 -1290v1290h135v-1673h-120l-514 1343v-1343h-134zM231 1843q31 35 44.5 49.5t43 33t58.5 18.5q33 0 104.5 -26t122.5 -26q45 0 86 62l51 -66q-63 -88 -161 -88q-27 0 -103 25.5t-98 25.5q-18 0 -35.5 -8t-27 -15t-22.5 -23.5t-18 -20.5z" />
<glyph unicode="&#xd2;" d="M92 1335q0 141 124 239.5t288 98.5q168 0 289.5 -98.5t121.5 -239.5v-1009q0 -141 -121.5 -239.5t-289.5 -98.5q-164 0 -287 98t-123 240zM223 2052h201l129 -291h-139zM227 326q0 -88 83 -147.5t194 -59.5q113 0 194.5 59.5t81.5 147.5v1009q0 88 -82 147.5t-194 59.5 q-111 0 -194 -59.5t-83 -147.5v-1009z" />
<glyph unicode="&#xd3;" d="M92 1335q0 141 124 239.5t288 98.5q168 0 289.5 -98.5t121.5 -239.5v-1009q0 -141 -121.5 -239.5t-289.5 -98.5q-164 0 -287 98t-123 240zM227 326q0 -88 83 -147.5t194 -59.5q113 0 194.5 59.5t81.5 147.5v1009q0 88 -82 147.5t-194 59.5q-111 0 -194 -59.5t-83 -147.5 v-1009zM424 1761l129 291h201l-191 -291h-139z" />
<glyph unicode="&#xd4;" d="M92 1335l2 -1009q0 -141 123 -239.5t287 -98.5q168 0 289.5 98.5t121.5 239.5v1009q0 141 -121.5 239.5t-289.5 98.5q-164 0 -288 -98t-124 -240zM227 326v1009q0 88 83 147.5t194 59.5q113 0 194.5 -59.5t81.5 -147.5v-1009q0 -88 -81.5 -147.5t-194.5 -59.5 q-111 0 -194 59.5t-83 147.5zM283 1761l172 203h108l162 -203h-102l-115 127l-117 -127h-108z" />
<glyph unicode="&#xd5;" d="M92 1335q0 141 124 239.5t288 98.5q168 0 289.5 -98.5t121.5 -239.5v-1009q0 -141 -121.5 -239.5t-289.5 -98.5q-164 0 -287 98t-123 240zM227 326q0 -88 83 -147.5t194 -59.5q113 0 194.5 59.5t81.5 147.5v1009q0 88 -82 147.5t-194 59.5q-111 0 -194 -59.5t-83 -147.5 v-1009zM248 1841q31 35 44 49.5t43 33t58 18.5q33 0 104.5 -26t123.5 -26q45 0 86 62l51 -66q-64 -88 -162 -88q-27 0 -102.5 25.5t-98.5 25.5q-18 0 -35.5 -8t-26.5 -15t-22.5 -23.5t-17.5 -20.5z" />
<glyph unicode="&#xd6;" d="M92 1335q0 141 124 239.5t288 98.5q168 0 289.5 -98.5t121.5 -239.5v-1009q0 -141 -121.5 -239.5t-289.5 -98.5q-164 0 -287 98t-123 240zM227 326q0 -88 83 -147.5t194 -59.5q113 0 194.5 59.5t81.5 147.5v1009q0 88 -82 147.5t-194 59.5q-111 0 -194 -59.5t-83 -147.5 v-1009zM332 1782v162h114v-162h-114zM563 1782v162h115v-162h-115z" />
<glyph unicode="&#xd7;" horiz-adv-x="835" d="M98 578l234 233l-230 229l82 82l232 -229l231 231l82 -82l-231 -231l233 -233l-84 -84l-231 233l-234 -233z" />
<glyph unicode="&#xd8;" d="M27 -27l100 217q-33 63 -35 136v1009q0 141 124 239.5t288 98.5q160 0 278 -90l54 115h118l-92 -197q53 -80 53 -166v-1009q0 -141 -121.5 -239.5t-289.5 -98.5q-178 0 -303 110l-58 -125h-116zM227 410l469 1030q-8 43 -67 72.5t-125 29.5q-111 0 -194 -59.5t-83 -147.5 v-925zM293 254q14 -59 74.5 -97t136.5 -38q113 0 194.5 59.5t81.5 147.5v1003z" />
<glyph unicode="&#xd9;" horiz-adv-x="956" d="M102 1673h136v-1333q0 -86 70.5 -150.5t164.5 -64.5t166 64.5t72 150.5v1333h137v-1333q0 -143 -110.5 -246.5t-264.5 -103.5q-152 0 -260.5 102.5t-108.5 247.5zM205 2054h201l129 -291h-140z" />
<glyph unicode="&#xda;" horiz-adv-x="956" d="M102 1673h136v-1333q0 -86 70.5 -150.5t164.5 -64.5t166 64.5t72 150.5v1333h137v-1333q0 -143 -110.5 -246.5t-264.5 -103.5q-152 0 -260.5 102.5t-108.5 247.5zM395 1761l129 291h201l-190 -291h-140z" />
<glyph unicode="&#xdb;" horiz-adv-x="956" d="M102 1673l2 -1333q0 -145 109 -247.5t260 -102.5q154 0 264.5 103.5t110.5 246.5v1333h-137v-1333q0 -86 -72 -150.5t-166 -64.5t-164.5 64.5t-70.5 150.5v1333h-136zM254 1761l172 203h109l161 -203h-102l-115 127l-117 -127h-108z" />
<glyph unicode="&#xdc;" horiz-adv-x="956" d="M102 1673h136v-1333q0 -86 70.5 -150.5t164.5 -64.5t166 64.5t72 150.5v1333h137v-1333q0 -143 -110.5 -246.5t-264.5 -103.5q-152 0 -260.5 102.5t-108.5 247.5zM303 1782v162h115v-162h-115zM535 1782v162h114v-162h-114z" />
<glyph unicode="&#xdd;" horiz-adv-x="1036" d="M37 1673h153l326 -680q51 109 163 340.5t163 339.5h153l-413 -866v-807h-136v807q-59 125 -200.5 425t-208.5 441zM438 1761l129 291h201l-190 -291h-140z" />
<glyph unicode="&#xde;" horiz-adv-x="845" d="M115 1673h137v-389h219q145 0 250.5 -105.5t105.5 -250.5v-252q0 -147 -104.5 -250.5t-251.5 -103.5h-219v-322h-135zM252 459h219q88 0 153.5 63.5t65.5 153.5v252q0 88 -65.5 153.5t-153.5 65.5h-219v-688z" />
<glyph unicode="&#xdf;" horiz-adv-x="1763" d="M84 348v162h135v-162q0 -88 73 -154.5t169 -66.5q100 0 168.5 65.5t68.5 155.5v240q0 72 -71.5 119t-169.5 47q-152 0 -262.5 91t-110.5 226v246q0 147 110.5 251.5t266 104.5t265.5 -104.5t110 -251.5v-168h-136v168q0 92 -71.5 156.5t-167.5 64.5q-100 0 -170 -65.5 t-70 -155.5v-246q0 -80 72 -131t172 -55q150 -12 260.5 -93t110.5 -204v-240q0 -147 -111 -251.5t-264 -104.5q-156 0 -265.5 104.5t-111.5 251.5zM928 348v162h135v-162q0 -88 72.5 -154.5t169.5 -66.5q100 0 168.5 65.5t68.5 155.5v240q0 72 -71.5 119t-170.5 47 q-152 0 -262 91t-110 226v246q0 147 110.5 251.5t266 104.5t265 -104.5t109.5 -251.5v-168h-135v168q0 92 -71.5 156.5t-167.5 64.5q-100 0 -170 -65.5t-70 -155.5v-246q0 -80 71.5 -131t172.5 -55q150 -12 260 -93t110 -204v-240q0 -147 -110.5 -251.5t-263.5 -104.5 q-156 0 -266.5 104.5t-110.5 251.5z" />
<glyph unicode="&#xe0;" horiz-adv-x="970" d="M51 0l336 1673h182l351 -1673h-142l-76 291h-440l-72 -291h-139zM211 2052h201l129 -291h-140zM281 408h403l-205 1032q-34 -172 -198 -1032z" />
<glyph unicode="&#xe1;" horiz-adv-x="970" d="M51 0l336 1673h182l351 -1673h-142l-76 291h-440l-72 -291h-139zM281 408h403l-205 1032q-34 -172 -198 -1032zM403 1761l129 291h201l-190 -291h-140z" />
<glyph unicode="&#xe2;" horiz-adv-x="970" d="M51 0h139l72 291h440l76 -291h142l-351 1673h-182zM256 1761l172 203h109l161 -203h-102l-115 127l-116 -127h-109zM281 408q164 860 198 1032l205 -1032h-403z" />
<glyph unicode="&#xe3;" horiz-adv-x="970" d="M51 0l336 1673h182l351 -1673h-142l-76 291h-440l-72 -291h-139zM225 1841q31 35 44.5 49.5t43 33t58.5 18.5q33 0 103.5 -26t123.5 -26q45 0 86 62l51 -66q-64 -88 -162 -88q-27 0 -102.5 25.5t-97.5 25.5q-18 0 -36 -8t-27 -15t-22.5 -23.5t-17.5 -20.5zM281 408h403 l-205 1032q-34 -172 -198 -1032z" />
<glyph unicode="&#xe4;" horiz-adv-x="970" d="M51 0l336 1673h182l351 -1673h-142l-76 291h-440l-72 -291h-139zM281 408h403l-205 1032q-34 -172 -198 -1032zM309 1782v162h115v-162h-115zM541 1782v162h114v-162h-114z" />
<glyph unicode="&#xe5;" horiz-adv-x="970" d="M51 0l336 1673h182l351 -1673h-142l-76 291h-440l-72 -291h-139zM281 408h403l-205 1032q-34 -172 -198 -1032zM328 1917q0 66 45 111t110.5 45t110.5 -45.5t45 -111t-45 -110.5t-111 -45q-68 0 -111.5 44t-43.5 112zM393 1917q0 -37 26.5 -63.5t63.5 -26.5t63.5 26.5 t26.5 63.5t-26.5 63.5t-63.5 26.5t-63.5 -26.5t-26.5 -63.5z" />
<glyph unicode="&#xe6;" horiz-adv-x="1466" d="M37 0l690 1673h647v-135h-526q0 -274 1 -458.5t1 -209.5h469v-114h-469q0 -125 -2 -308.5t-2 -312.5h528v-135h-667v414h-338l-189 -414h-143zM428 551h281v686z" />
<glyph unicode="&#xe7;" horiz-adv-x="983" d="M102 342v975q0 145 125 250.5t293 105.5q156 0 266.5 -104.5t110.5 -251.5v-111h-137v111q0 88 -73 154.5t-167 66.5q-111 0 -195.5 -66.5t-84.5 -154.5v-975q0 -88 85 -154.5t195 -66.5q94 0 167 66.5t73 154.5v119h137v-119q0 -139 -99.5 -241.5t-244.5 -112.5v-19 q57 6 97 -22.5t40 -93.5q0 -61 -41 -92t-102 -31q-51 0 -115 26l27 64q45 -23 86 -23q29 0 51 16.5t22 39.5q0 45 -41.5 50t-91.5 -9v94q-160 10 -271.5 114.5t-111.5 239.5z" />
<glyph unicode="&#xe8;" horiz-adv-x="827" d="M115 1673h643v-135h-508v-504h452v-114h-452v-785h508v-135h-641zM205 2052h201l129 -291h-140z" />
<glyph unicode="&#xe9;" horiz-adv-x="827" d="M115 1673h643v-135h-508v-504h452v-114h-452v-785h508v-135h-641zM336 1763l129 291h201l-191 -291h-139z" />
<glyph unicode="&#xea;" horiz-adv-x="827" d="M115 1673l2 -1673h641v135h-508v785h452v114h-452v504h508v135h-643zM223 1761l172 203h109l162 -203h-103l-114 127l-117 -127h-109z" />
<glyph unicode="&#xeb;" horiz-adv-x="827" d="M115 1673h643v-135h-508v-504h452v-114h-452v-785h508v-135h-641zM268 1782v162h115v-162h-115zM500 1782v162h114v-162h-114z" />
<glyph unicode="&#xec;" horiz-adv-x="405" d="M-74 2052h199l129 -291h-139zM125 1673h143v-1673h-141z" />
<glyph unicode="&#xed;" horiz-adv-x="405" d="M121 1761l129 291h201l-191 -291h-139zM125 1673h143v-1673h-141z" />
<glyph unicode="&#xee;" horiz-adv-x="405" d="M-18 1763l170 203h108l162 -203h-103l-114 127l-117 -127h-106zM125 1673l2 -1673h141v1673h-143z" />
<glyph unicode="&#xef;" horiz-adv-x="405" d="M29 1784v162h114v-162h-114zM125 1673h143v-1673h-141zM260 1784v162h115v-162h-115z" />
<glyph unicode="&#xf0;" horiz-adv-x="985" d="M51 752v116h131v805h357q143 0 249.5 -97t106.5 -241v-997q0 -143 -106.5 -240.5t-249.5 -97.5h-357v752h-131zM317 131h222q88 0 153.5 59.5t65.5 147.5v997q0 88 -65.5 147.5t-153.5 59.5h-222v-674h271v-116h-271v-621z" />
<glyph unicode="&#xf1;" horiz-adv-x="980" d="M102 1673h152l483 -1290v1290h135v-1673h-120l-514 1343v-1343h-134zM231 1843q31 35 44.5 49.5t43 33t58.5 18.5q33 0 104.5 -26t122.5 -26q45 0 86 62l51 -66q-63 -88 -161 -88q-27 0 -103 25.5t-98 25.5q-18 0 -35.5 -8t-27 -15t-22.5 -23.5t-18 -20.5z" />
<glyph unicode="&#xf2;" d="M92 1335q0 141 124 239.5t288 98.5q168 0 289.5 -98.5t121.5 -239.5v-1009q0 -141 -121.5 -239.5t-289.5 -98.5q-164 0 -287 98t-123 240zM223 2052h201l129 -291h-139zM227 326q0 -88 83 -147.5t194 -59.5q113 0 194.5 59.5t81.5 147.5v1009q0 88 -82 147.5t-194 59.5 q-111 0 -194 -59.5t-83 -147.5v-1009z" />
<glyph unicode="&#xf3;" d="M92 1335q0 141 124 239.5t288 98.5q168 0 289.5 -98.5t121.5 -239.5v-1009q0 -141 -121.5 -239.5t-289.5 -98.5q-164 0 -287 98t-123 240zM227 326q0 -88 83 -147.5t194 -59.5q113 0 194.5 59.5t81.5 147.5v1009q0 88 -82 147.5t-194 59.5q-111 0 -194 -59.5t-83 -147.5 v-1009zM424 1761l129 291h201l-191 -291h-139z" />
<glyph unicode="&#xf4;" d="M92 1335l2 -1009q0 -141 123 -239.5t287 -98.5q168 0 289.5 98.5t121.5 239.5v1009q0 141 -121.5 239.5t-289.5 98.5q-164 0 -288 -98t-124 -240zM227 326v1009q0 88 83 147.5t194 59.5q113 0 194.5 -59.5t81.5 -147.5v-1009q0 -88 -81.5 -147.5t-194.5 -59.5 q-111 0 -194 59.5t-83 147.5zM283 1761l172 203h108l162 -203h-102l-115 127l-117 -127h-108z" />
<glyph unicode="&#xf5;" d="M92 1335q0 141 124 239.5t288 98.5q168 0 289.5 -98.5t121.5 -239.5v-1009q0 -141 -121.5 -239.5t-289.5 -98.5q-164 0 -287 98t-123 240zM227 326q0 -88 83 -147.5t194 -59.5q113 0 194.5 59.5t81.5 147.5v1009q0 88 -82 147.5t-194 59.5q-111 0 -194 -59.5t-83 -147.5 v-1009zM248 1841q31 35 44 49.5t43 33t58 18.5q33 0 104.5 -26t123.5 -26q45 0 86 62l51 -66q-64 -88 -162 -88q-27 0 -102.5 25.5t-98.5 25.5q-18 0 -35.5 -8t-26.5 -15t-22.5 -23.5t-17.5 -20.5z" />
<glyph unicode="&#xf6;" d="M92 1335q0 141 124 239.5t288 98.5q168 0 289.5 -98.5t121.5 -239.5v-1009q0 -141 -121.5 -239.5t-289.5 -98.5q-164 0 -287 98t-123 240zM227 326q0 -88 83 -147.5t194 -59.5q113 0 194.5 59.5t81.5 147.5v1009q0 88 -82 147.5t-194 59.5q-111 0 -194 -59.5t-83 -147.5 v-1009zM332 1782v162h114v-162h-114zM563 1782v162h115v-162h-115z" />
<glyph unicode="&#xf7;" horiz-adv-x="831" d="M115 752v116h596v-116h-596zM328 391v209h155v-209h-155zM328 1026v209h155v-209h-155z" />
<glyph unicode="&#xf8;" d="M27 -27l100 217q-33 63 -35 136v1009q0 141 124 239.5t288 98.5q160 0 278 -90l54 115h118l-92 -197q53 -80 53 -166v-1009q0 -141 -121.5 -239.5t-289.5 -98.5q-178 0 -303 110l-58 -125h-116zM227 410l469 1030q-8 43 -67 72.5t-125 29.5q-111 0 -194 -59.5t-83 -147.5 v-925zM293 254q14 -59 74.5 -97t136.5 -38q113 0 194.5 59.5t81.5 147.5v1003z" />
<glyph unicode="&#xf9;" horiz-adv-x="956" d="M102 1673h136v-1333q0 -86 70.5 -150.5t164.5 -64.5t166 64.5t72 150.5v1333h137v-1333q0 -143 -110.5 -246.5t-264.5 -103.5q-152 0 -260.5 102.5t-108.5 247.5zM205 2054h201l129 -291h-140z" />
<glyph unicode="&#xfa;" horiz-adv-x="956" d="M102 1673h136v-1333q0 -86 70.5 -150.5t164.5 -64.5t166 64.5t72 150.5v1333h137v-1333q0 -143 -110.5 -246.5t-264.5 -103.5q-152 0 -260.5 102.5t-108.5 247.5zM395 1761l129 291h201l-190 -291h-140z" />
<glyph unicode="&#xfb;" horiz-adv-x="956" d="M102 1673l2 -1333q0 -145 109 -247.5t260 -102.5q154 0 264.5 103.5t110.5 246.5v1333h-137v-1333q0 -86 -72 -150.5t-166 -64.5t-164.5 64.5t-70.5 150.5v1333h-136zM254 1761l172 203h109l161 -203h-102l-115 127l-117 -127h-108z" />
<glyph unicode="&#xfc;" horiz-adv-x="956" d="M102 1673h136v-1333q0 -86 70.5 -150.5t164.5 -64.5t166 64.5t72 150.5v1333h137v-1333q0 -143 -110.5 -246.5t-264.5 -103.5q-152 0 -260.5 102.5t-108.5 247.5zM303 1782v162h115v-162h-115zM535 1782v162h114v-162h-114z" />
<glyph unicode="&#xfd;" horiz-adv-x="1036" d="M37 1673h153l326 -680q51 109 163 340.5t163 339.5h153l-413 -866v-807h-136v807q-59 125 -200.5 425t-208.5 441zM438 1761l129 291h201l-190 -291h-140z" />
<glyph unicode="&#xfe;" horiz-adv-x="845" d="M115 1673h137v-389h219q145 0 250.5 -105.5t105.5 -250.5v-252q0 -147 -104.5 -250.5t-251.5 -103.5h-219v-322h-135zM252 459h219q88 0 153.5 63.5t65.5 153.5v252q0 88 -65.5 153.5t-153.5 65.5h-219v-688z" />
<glyph unicode="&#xff;" horiz-adv-x="1036" d="M37 1673h153l326 -680q51 109 163 340.5t163 339.5h153l-413 -866v-807h-136v807q-59 125 -200.5 425t-208.5 441zM342 1784v162h115v-162h-115zM573 1784v162h115v-162h-115z" />
<glyph unicode="&#x152;" horiz-adv-x="1468" d="M106 338v997q0 141 124 239.5t288 98.5q119 0 215 -51v51h643v-135h-508v-668h453v-114h-453v-621h508v-135h-643v49q-94 -49 -215 -49q-164 0 -286.5 98.5t-125.5 239.5zM242 338q0 -88 82.5 -147.5t193.5 -59.5q88 0 151.5 59.5t63.5 147.5v1003q-2 86 -66.5 143.5 t-148.5 57.5q-111 0 -193.5 -59.5t-82.5 -147.5v-997z" />
<glyph unicode="&#x153;" horiz-adv-x="1468" d="M106 338v997q0 141 124 239.5t288 98.5q119 0 215 -51v51h643v-135h-508v-668h453v-135h-453v-600h508v-135h-643v49q-94 -49 -215 -49q-164 0 -286.5 98.5t-125.5 239.5zM242 338q0 -88 82.5 -147.5t193.5 -59.5q88 0 151.5 59.5t63.5 147.5v1003q-2 86 -66.5 143.5 t-148.5 57.5q-111 0 -193.5 -59.5t-82.5 -147.5v-997z" />
<glyph unicode="&#x178;" horiz-adv-x="1036" d="M37 1673h153l326 -680q51 109 163 340.5t163 339.5h153l-413 -866v-807h-136v807q-59 125 -200.5 425t-208.5 441zM342 1784v162h115v-162h-115zM573 1784v162h115v-162h-115z" />
<glyph unicode="&#x2c6;" horiz-adv-x="561" d="M57 1470l172 203h109l162 -203h-103l-114 127l-117 -127h-109z" />
<glyph unicode="&#x2dc;" horiz-adv-x="690" d="M86 1538q31 35 44 49.5t43 32.5t58 18q35 0 105 -25.5t123 -25.5q45 0 86 62l51 -66q-64 -88 -162 -88q-27 0 -102.5 25.5t-98.5 25.5q-18 0 -35.5 -8t-26.5 -15t-22.5 -23.5t-17.5 -20.5z" />
<glyph unicode="&#x2000;" horiz-adv-x="1036" />
<glyph unicode="&#x2001;" horiz-adv-x="2073" />
<glyph unicode="&#x2002;" horiz-adv-x="1036" />
<glyph unicode="&#x2003;" horiz-adv-x="2073" />
<glyph unicode="&#x2004;" horiz-adv-x="691" />
<glyph unicode="&#x2005;" horiz-adv-x="518" />
<glyph unicode="&#x2006;" horiz-adv-x="345" />
<glyph unicode="&#x2007;" horiz-adv-x="345" />
<glyph unicode="&#x2008;" horiz-adv-x="259" />
<glyph unicode="&#x2009;" horiz-adv-x="414" />
<glyph unicode="&#x200a;" horiz-adv-x="115" />
<glyph unicode="&#x2010;" horiz-adv-x="831" d="M115 752v116h596v-116h-596z" />
<glyph unicode="&#x2011;" horiz-adv-x="831" d="M115 752v116h596v-116h-596z" />
<glyph unicode="&#x2012;" horiz-adv-x="831" d="M115 752v116h596v-116h-596z" />
<glyph unicode="&#x2013;" horiz-adv-x="964" d="M92 752v116h774v-116h-774z" />
<glyph unicode="&#x2014;" horiz-adv-x="1210" d="M115 752v116h975v-116h-975z" />
<glyph unicode="&#x2018;" horiz-adv-x="436" d="M129 1305v233l66 135h75l-65 -135h100v-233h-176z" />
<glyph unicode="&#x2019;" horiz-adv-x="436" d="M129 1440v233h176v-233l-65 -135h-76l65 135h-100z" />
<glyph unicode="&#x201a;" horiz-adv-x="430" d="M129 0v233h176v-233l-65 -115h-76l65 115h-100z" />
<glyph unicode="&#x201c;" horiz-adv-x="714" d="M127 1305v233l66 135h75l-65 -135h100v-233h-176zM408 1305v233l65 135h76l-66 -135h101v-233h-176z" />
<glyph unicode="&#x201d;" horiz-adv-x="714" d="M127 1440v233h176v-233l-65 -135h-76l65 135h-100zM408 1440v233h176v-233l-66 -135h-76l66 135h-100z" />
<glyph unicode="&#x201e;" horiz-adv-x="714" d="M127 0v233h176v-233l-65 -115h-76l65 115h-100zM408 0v233h176v-233l-66 -115h-76l66 115h-100z" />
<glyph unicode="&#x2022;" horiz-adv-x="532" d="M102 807q0 66 47.5 113t112.5 47q68 0 116 -46.5t48 -114t-48 -115.5t-115.5 -48t-114 48t-46.5 116z" />
<glyph unicode="&#x2026;" horiz-adv-x="1179" d="M113 0v209h155v-209h-155zM506 0v209h156v-209h-156zM899 0v209h156v-209h-156z" />
<glyph unicode="&#x202f;" horiz-adv-x="414" />
<glyph unicode="&#x2039;" horiz-adv-x="518" d="M43 672v133l426 467v-185l-309 -350q299 -338 309 -348v-184z" />
<glyph unicode="&#x203a;" horiz-adv-x="518" d="M43 1087v185l426 -467v-133l-424 -467v184q49 57 307 348z" />
<glyph unicode="&#x205f;" horiz-adv-x="518" />
<glyph unicode="&#x20ac;" horiz-adv-x="1087" d="M78 596v117h131v192h-131v117h131v295q0 145 125 250.5t293 105.5q156 0 266.5 -104.5t110.5 -251.5v-150h-138v150q0 88 -72.5 154.5t-166.5 66.5q-111 0 -196 -66.5t-85 -154.5v-295h363v-117h-363v-192h363v-117h-363v-254q0 -88 85 -154.5t196 -66.5q94 0 166.5 66.5 t72.5 154.5v141h138v-141q0 -147 -110.5 -251.5t-266.5 -104.5q-168 0 -293 105.5t-125 250.5v254h-131z" />
<glyph unicode="&#x2122;" horiz-adv-x="1343" d="M98 1595v78h437v-78h-179v-927h-77v927h-181zM618 668v1005h87l229 -903l231 903h74v-1005h-80v694l-172 -694h-104l-189 694v-694h-76z" />
<glyph unicode="&#x25fc;" horiz-adv-x="1669" d="M0 0v1669h1669v-1669h-1669z" />
</font>
</defs>
</svg>
